<?xml version="1.0" encoding="utf-8" standalone="no"?>
<!DOCTYPE svg PUBLIC "-//W3C//DTD SVG 1.1//EN"
  "http://www.w3.org/Graphics/SVG/1.1/DTD/svg11.dtd">
<svg xmlns:xlink="http://www.w3.org/1999/xlink" width="322.469375pt" height="274.023125pt" viewBox="0 0 322.469375 274.023125" xmlns="http://www.w3.org/2000/svg" version="1.1">
 <metadata>
  <rdf:RDF xmlns:dc="http://purl.org/dc/elements/1.1/" xmlns:cc="http://creativecommons.org/ns#" xmlns:rdf="http://www.w3.org/1999/02/22-rdf-syntax-ns#">
   <cc:Work>
    <dc:type rdf:resource="http://purl.org/dc/dcmitype/StillImage"/>
    <dc:date>2023-03-13T19:43:20.328590</dc:date>
    <dc:format>image/svg+xml</dc:format>
    <dc:creator>
     <cc:Agent>
      <dc:title>Matplotlib v3.6.2, https://matplotlib.org/</dc:title>
     </cc:Agent>
    </dc:creator>
   </cc:Work>
  </rdf:RDF>
 </metadata>
 <defs>
  <style type="text/css">*{stroke-linejoin: round; stroke-linecap: butt}</style>
 </defs>
 <g id="figure_1">
  <g id="patch_1">
   <path d="M 0 274.023125 
L 322.469375 274.023125 
L 322.469375 0 
L 0 0 
z
" style="fill: #ffffff"/>
  </g>
  <g id="axes_1">
   <g id="patch_2">
    <path d="M 36.269375 233.266875 
L 315.269375 233.266875 
L 315.269375 11.506875 
L 36.269375 11.506875 
z
" style="fill: #ffffff"/>
   </g>
   <g id="PolyCollection_1">
    <defs>
     <path id="m171ea49959" d="M 64.364383 -16.002784 
L 63.974367 -16.002784 
L 63.87844 -18.360092 
L 63.74938 -20.7174 
L 63.582314 -23.074708 
L 63.374184 -25.432017 
L 63.124527 -27.789325 
L 62.835905 -30.146633 
L 62.513792 -32.503941 
L 62.165782 -34.861249 
L 61.800167 -37.218557 
L 61.424076 -39.575866 
L 61.041522 -41.933174 
L 60.651784 -44.290482 
L 60.248492 -46.64779 
L 59.819657 -49.005098 
L 59.348698 -51.362406 
L 58.816283 -53.719714 
L 58.202684 -56.077023 
L 57.490245 -58.434331 
L 56.665676 -60.791639 
L 55.721982 -63.148947 
L 54.660043 -65.506255 
L 53.489969 -67.863563 
L 52.232313 -70.220871 
L 50.919065 -72.57818 
L 49.594085 -74.935488 
L 48.31236 -77.292796 
L 47.137466 -79.650104 
L 46.136854 -82.007412 
L 45.375162 -84.36472 
L 44.906431 -86.722028 
L 44.766703 -89.079337 
L 44.968606 -91.436645 
L 45.499248 -93.793953 
L 46.321904 -96.151261 
L 47.38104 -98.508569 
L 48.609441 -100.865877 
L 49.935821 -103.223186 
L 51.291504 -105.580494 
L 52.615329 -107.937802 
L 53.85664 -110.29511 
L 54.97676 -112.652418 
L 55.949573 -115.009726 
L 56.761695 -117.367034 
L 57.412357 -119.724343 
L 57.91284 -122.081651 
L 58.285075 -124.438959 
L 58.559161 -126.796267 
L 58.769779 -129.153575 
L 58.951882 -131.510883 
L 59.136296 -133.868191 
L 59.346009 -136.2255 
L 59.593822 -138.582808 
L 59.881774 -140.940116 
L 60.202374 -143.297424 
L 60.54132 -145.654732 
L 60.881065 -148.01204 
L 61.204516 -150.369348 
L 61.49813 -152.726657 
L 61.753902 -155.083965 
L 61.969987 -157.441273 
L 62.150012 -159.798581 
L 62.301413 -162.155889 
L 62.433265 -164.513197 
L 62.554161 -166.870506 
L 62.670588 -169.227814 
L 62.786069 -171.585122 
L 62.90116 -173.94243 
L 63.014125 -176.299738 
L 63.122004 -178.657046 
L 63.221747 -181.014354 
L 63.311092 -183.371663 
L 63.389034 -185.728971 
L 63.455852 -188.086279 
L 63.512786 -190.443587 
L 63.561552 -192.800895 
L 63.60387 -195.158203 
L 63.641134 -197.515511 
L 63.674281 -199.87282 
L 63.703841 -202.230128 
L 63.730102 -204.587436 
L 63.753306 -206.944744 
L 63.773815 -209.302052 
L 63.792204 -211.65936 
L 63.809276 -214.016668 
L 63.826 -216.373977 
L 63.843402 -218.731285 
L 63.862413 -221.088593 
L 63.883723 -223.445901 
L 63.907653 -225.803209 
L 63.934082 -228.160517 
L 63.962449 -230.517826 
L 63.991831 -232.875134 
L 64.021088 -235.232442 
L 64.049039 -237.58975 
L 64.07464 -239.947058 
L 64.097112 -242.304366 
L 64.116021 -244.661674 
L 64.131275 -247.018983 
L 64.143077 -249.376291 
L 64.195673 -249.376291 
L 64.195673 -249.376291 
L 64.207475 -247.018983 
L 64.222729 -244.661674 
L 64.241638 -242.304366 
L 64.26411 -239.947058 
L 64.289711 -237.58975 
L 64.317662 -235.232442 
L 64.346919 -232.875134 
L 64.376301 -230.517826 
L 64.404668 -228.160517 
L 64.431097 -225.803209 
L 64.455027 -223.445901 
L 64.476337 -221.088593 
L 64.495348 -218.731285 
L 64.51275 -216.373977 
L 64.529474 -214.016668 
L 64.546546 -211.65936 
L 64.564935 -209.302052 
L 64.585444 -206.944744 
L 64.608648 -204.587436 
L 64.634909 -202.230128 
L 64.664469 -199.87282 
L 64.697616 -197.515511 
L 64.73488 -195.158203 
L 64.777198 -192.800895 
L 64.825964 -190.443587 
L 64.882898 -188.086279 
L 64.949716 -185.728971 
L 65.027658 -183.371663 
L 65.117003 -181.014354 
L 65.216746 -178.657046 
L 65.324625 -176.299738 
L 65.43759 -173.94243 
L 65.552681 -171.585122 
L 65.668162 -169.227814 
L 65.784589 -166.870506 
L 65.905485 -164.513197 
L 66.037337 -162.155889 
L 66.188738 -159.798581 
L 66.368763 -157.441273 
L 66.584848 -155.083965 
L 66.84062 -152.726657 
L 67.134234 -150.369348 
L 67.457685 -148.01204 
L 67.79743 -145.654732 
L 68.136376 -143.297424 
L 68.456976 -140.940116 
L 68.744928 -138.582808 
L 68.992741 -136.2255 
L 69.202454 -133.868191 
L 69.386868 -131.510883 
L 69.568971 -129.153575 
L 69.779589 -126.796267 
L 70.053675 -124.438959 
L 70.42591 -122.081651 
L 70.926393 -119.724343 
L 71.577055 -117.367034 
L 72.389177 -115.009726 
L 73.36199 -112.652418 
L 74.48211 -110.29511 
L 75.723421 -107.937802 
L 77.047246 -105.580494 
L 78.402929 -103.223186 
L 79.729309 -100.865877 
L 80.95771 -98.508569 
L 82.016846 -96.151261 
L 82.839502 -93.793953 
L 83.370144 -91.436645 
L 83.572047 -89.079337 
L 83.432319 -86.722028 
L 82.963588 -84.36472 
L 82.201896 -82.007412 
L 81.201284 -79.650104 
L 80.02639 -77.292796 
L 78.744665 -74.935488 
L 77.419685 -72.57818 
L 76.106437 -70.220871 
L 74.848781 -67.863563 
L 73.678707 -65.506255 
L 72.616768 -63.148947 
L 71.673074 -60.791639 
L 70.848505 -58.434331 
L 70.136066 -56.077023 
L 69.522467 -53.719714 
L 68.990052 -51.362406 
L 68.519093 -49.005098 
L 68.090258 -46.64779 
L 67.686966 -44.290482 
L 67.297228 -41.933174 
L 66.914674 -39.575866 
L 66.538583 -37.218557 
L 66.172968 -34.861249 
L 65.824958 -32.503941 
L 65.502845 -30.146633 
L 65.214223 -27.789325 
L 64.964566 -25.432017 
L 64.756436 -23.074708 
L 64.58937 -20.7174 
L 64.46031 -18.360092 
L 64.364383 -16.002784 
z
" style="stroke: #595959; stroke-width: 0.5"/>
    </defs>
    <g clip-path="url(#p08e7891bfd)">
     <use xlink:href="#m171ea49959" x="0" y="274.023125" style="fill: #72b6a1; stroke: #595959; stroke-width: 0.5"/>
    </g>
   </g>
   <g id="PolyCollection_2">
    <path d="M 120.095476 257.157849 
L 119.843274 257.157849 
L 119.716121 252.981944 
L 119.513229 248.80604 
L 119.227679 244.630135 
L 118.869045 240.45423 
L 118.455213 236.278325 
L 117.990018 232.102421 
L 117.43828 227.926516 
L 116.71689 223.750611 
L 115.712718 219.574707 
L 114.319186 215.398802 
L 112.470447 211.222897 
L 110.160083 207.046992 
L 107.454785 202.871088 
L 104.5235 198.695183 
L 101.674146 194.519278 
L 99.344355 190.343373 
L 97.993575 186.167469 
L 97.921612 181.991564 
L 99.126701 177.815659 
L 101.309484 173.639754 
L 104.017214 169.46385 
L 106.817502 165.287945 
L 109.396624 161.11204 
L 111.568921 156.936136 
L 113.252895 152.760231 
L 114.458578 148.584326 
L 115.280741 144.408421 
L 115.8705 140.232517 
L 116.380087 136.056612 
L 116.907342 131.880707 
L 117.472233 127.704802 
L 118.034781 123.528898 
L 118.536039 119.352993 
L 118.934145 115.177088 
L 119.218727 111.001184 
L 119.404976 106.825279 
L 119.5191 102.649374 
L 119.586032 98.473469 
L 119.623848 94.297565 
L 119.643713 90.12166 
L 119.652135 85.945755 
L 119.653135 81.76985 
L 119.649612 77.593946 
L 119.644156 73.418041 
L 119.639475 69.242136 
L 119.638222 65.066231 
L 119.642195 60.890327 
L 119.651521 56.714422 
L 119.664665 52.538517 
L 119.679477 48.362613 
L 119.694549 44.186708 
L 119.709846 40.010803 
L 119.7262 35.834898 
L 119.74424 31.658994 
L 119.763722 27.483089 
L 119.783798 23.307184 
L 119.803865 19.131279 
L 119.824142 14.955375 
L 119.845389 10.77947 
L 119.868007 6.603565 
L 119.89128 2.427661 
L 119.913397 -1.748244 
L 119.932191 -5.924149 
L 119.946037 -10.100054 
L 119.954317 -14.275958 
L 119.957354 -18.451863 
L 119.956083 -22.627768 
L 119.951788 -26.803673 
L 119.945977 -30.979577 
L 119.940276 -35.155482 
L 119.936196 -39.331387 
L 119.934817 -43.507291 
L 119.936518 -47.683196 
L 119.940898 -51.859101 
L 119.946937 -56.035006 
L 119.95336 -60.21091 
L 119.959062 -64.386815 
L 119.963407 -68.56272 
L 119.966283 -72.738625 
L 119.967944 -76.914529 
L 119.968783 -81.090434 
L 119.969151 -85.266339 
L 119.969274 -89.442244 
L 119.969253 -93.618148 
L 119.969073 -97.794053 
L 119.968605 -101.969958 
L 119.967614 -106.145862 
L 119.965807 -110.321767 
L 119.962976 -114.497672 
L 119.959221 -118.673577 
L 119.955115 -122.849481 
L 119.951652 -127.025386 
L 119.949882 -131.201291 
L 119.950402 -135.377196 
L 119.953032 -139.5531 
L 119.956917 -143.729005 
L 119.960971 -147.90491 
L 119.964358 -152.080814 
L 119.966724 -156.256719 
L 119.972026 -156.256719 
L 119.972026 -156.256719 
L 119.974392 -152.080814 
L 119.977779 -147.90491 
L 119.981833 -143.729005 
L 119.985718 -139.5531 
L 119.988348 -135.377196 
L 119.988868 -131.201291 
L 119.987098 -127.025386 
L 119.983635 -122.849481 
L 119.979529 -118.673577 
L 119.975774 -114.497672 
L 119.972943 -110.321767 
L 119.971136 -106.145862 
L 119.970145 -101.969958 
L 119.969677 -97.794053 
L 119.969497 -93.618148 
L 119.969476 -89.442244 
L 119.969599 -85.266339 
L 119.969967 -81.090434 
L 119.970806 -76.914529 
L 119.972467 -72.738625 
L 119.975343 -68.56272 
L 119.979688 -64.386815 
L 119.98539 -60.21091 
L 119.991813 -56.035006 
L 119.997852 -51.859101 
L 120.002232 -47.683196 
L 120.003933 -43.507291 
L 120.002554 -39.331387 
L 119.998474 -35.155482 
L 119.992773 -30.979577 
L 119.986962 -26.803673 
L 119.982667 -22.627768 
L 119.981396 -18.451863 
L 119.984433 -14.275958 
L 119.992713 -10.100054 
L 120.006559 -5.924149 
L 120.025353 -1.748244 
L 120.04747 2.427661 
L 120.070743 6.603565 
L 120.093361 10.77947 
L 120.114608 14.955375 
L 120.134885 19.131279 
L 120.154952 23.307184 
L 120.175028 27.483089 
L 120.19451 31.658994 
L 120.21255 35.834898 
L 120.228904 40.010803 
L 120.244201 44.186708 
L 120.259273 48.362613 
L 120.274085 52.538517 
L 120.287229 56.714422 
L 120.296555 60.890327 
L 120.300528 65.066231 
L 120.299275 69.242136 
L 120.294594 73.418041 
L 120.289138 77.593946 
L 120.285615 81.76985 
L 120.286615 85.945755 
L 120.295037 90.12166 
L 120.314902 94.297565 
L 120.352718 98.473469 
L 120.41965 102.649374 
L 120.533774 106.825279 
L 120.720023 111.001184 
L 121.004605 115.177088 
L 121.402711 119.352993 
L 121.903969 123.528898 
L 122.466517 127.704802 
L 123.031408 131.880707 
L 123.558663 136.056612 
L 124.06825 140.232517 
L 124.658009 144.408421 
L 125.480172 148.584326 
L 126.685855 152.760231 
L 128.369829 156.936136 
L 130.542126 161.11204 
L 133.121248 165.287945 
L 135.921536 169.46385 
L 138.629266 173.639754 
L 140.812049 177.815659 
L 142.017138 181.991564 
L 141.945175 186.167469 
L 140.594395 190.343373 
L 138.264604 194.519278 
L 135.41525 198.695183 
L 132.483965 202.871088 
L 129.778667 207.046992 
L 127.468303 211.222897 
L 125.619564 215.398802 
L 124.226032 219.574707 
L 123.22186 223.750611 
L 122.50047 227.926516 
L 121.948732 232.102421 
L 121.483537 236.278325 
L 121.069705 240.45423 
L 120.711071 244.630135 
L 120.425521 248.80604 
L 120.222629 252.981944 
L 120.095476 257.157849 
z
" clip-path="url(#p08e7891bfd)" style="fill: #e99675; stroke: #595959; stroke-width: 0.5"/>
   </g>
   <g id="PolyCollection_3">
    <path d="M 175.915072 255.454369 
L 175.623678 255.454369 
L 175.455175 251.168572 
L 175.177482 246.882775 
L 174.788118 242.596978 
L 174.319156 238.31118 
L 173.816052 234.025383 
L 173.287261 229.739586 
L 172.659267 225.453789 
L 171.781433 221.167992 
L 170.491335 216.882194 
L 168.697701 212.596397 
L 166.416845 208.3106 
L 163.744419 204.024803 
L 160.824415 199.739006 
L 157.890311 195.453208 
L 155.34302 191.167411 
L 153.715855 186.881614 
L 153.449375 182.595817 
L 154.626588 178.31002 
L 156.914349 174.024222 
L 159.765375 169.738425 
L 162.684045 165.452628 
L 165.348797 161.166831 
L 167.582196 156.881033 
L 169.296008 152.595236 
L 170.489267 148.309439 
L 171.265572 144.023642 
L 171.806771 139.737845 
L 172.296003 135.452047 
L 172.839841 131.16625 
L 173.441376 126.880453 
L 174.033359 122.594656 
L 174.537928 118.308859 
L 174.91102 114.023061 
L 175.152754 109.737264 
L 175.292337 105.451467 
L 175.366612 101.16567 
L 175.405516 96.879873 
L 175.427435 92.594075 
L 175.441157 88.308278 
L 175.450047 84.022481 
L 175.455558 79.736684 
L 175.45904 75.450886 
L 175.462108 71.165089 
L 175.466403 66.879292 
L 175.473405 62.593495 
L 175.484332 58.307698 
L 175.499856 54.0219 
L 175.519638 49.736103 
L 175.542202 45.450306 
L 175.565521 41.164509 
L 175.587995 36.878712 
L 175.609043 32.592914 
L 175.628983 28.307117 
L 175.648427 24.02132 
L 175.667712 19.735523 
L 175.686624 15.449726 
L 175.704442 11.163928 
L 175.720241 6.878131 
L 175.733267 2.592334 
L 175.743197 -1.693463 
L 175.750174 -5.979261 
L 175.754682 -10.265058 
L 175.757371 -14.550855 
L 175.758894 -18.836652 
L 175.759805 -23.122449 
L 175.760503 -27.408247 
L 175.761231 -31.694044 
L 175.762113 -35.979841 
L 175.763186 -40.265638 
L 175.764416 -44.551435 
L 175.7657 -48.837233 
L 175.766895 -53.12303 
L 175.767871 -57.408827 
L 175.768565 -61.694624 
L 175.76899 -65.980421 
L 175.769215 -70.266219 
L 175.769317 -74.552016 
L 175.769356 -78.837813 
L 175.769369 -83.12361 
L 175.76937 -87.409408 
L 175.769359 -91.695205 
L 175.769325 -95.981002 
L 175.769237 -100.266799 
L 175.769045 -104.552596 
L 175.768682 -108.838394 
L 175.768092 -113.124191 
L 175.76726 -117.409988 
L 175.766235 -121.695785 
L 175.765119 -125.981582 
L 175.764049 -130.26738 
L 175.76319 -134.553177 
L 175.762724 -138.838974 
L 175.762812 -143.124771 
L 175.763506 -147.410568 
L 175.764676 -151.696366 
L 175.766042 -155.982163 
L 175.767296 -160.26796 
L 175.768242 -164.553757 
L 175.768837 -168.839555 
L 175.769913 -168.839555 
L 175.769913 -168.839555 
L 175.770508 -164.553757 
L 175.771454 -160.26796 
L 175.772708 -155.982163 
L 175.774074 -151.696366 
L 175.775244 -147.410568 
L 175.775938 -143.124771 
L 175.776026 -138.838974 
L 175.77556 -134.553177 
L 175.774701 -130.26738 
L 175.773631 -125.981582 
L 175.772515 -121.695785 
L 175.77149 -117.409988 
L 175.770658 -113.124191 
L 175.770068 -108.838394 
L 175.769705 -104.552596 
L 175.769513 -100.266799 
L 175.769425 -95.981002 
L 175.769391 -91.695205 
L 175.76938 -87.409408 
L 175.769381 -83.12361 
L 175.769394 -78.837813 
L 175.769433 -74.552016 
L 175.769535 -70.266219 
L 175.76976 -65.980421 
L 175.770185 -61.694624 
L 175.770879 -57.408827 
L 175.771855 -53.12303 
L 175.77305 -48.837233 
L 175.774334 -44.551435 
L 175.775564 -40.265638 
L 175.776637 -35.979841 
L 175.777519 -31.694044 
L 175.778247 -27.408247 
L 175.778945 -23.122449 
L 175.779856 -18.836652 
L 175.781379 -14.550855 
L 175.784068 -10.265058 
L 175.788576 -5.979261 
L 175.795553 -1.693463 
L 175.805483 2.592334 
L 175.818509 6.878131 
L 175.834308 11.163928 
L 175.852126 15.449726 
L 175.871038 19.735523 
L 175.890323 24.02132 
L 175.909767 28.307117 
L 175.929707 32.592914 
L 175.950755 36.878712 
L 175.973229 41.164509 
L 175.996548 45.450306 
L 176.019112 49.736103 
L 176.038894 54.0219 
L 176.054418 58.307698 
L 176.065345 62.593495 
L 176.072347 66.879292 
L 176.076642 71.165089 
L 176.07971 75.450886 
L 176.083192 79.736684 
L 176.088703 84.022481 
L 176.097593 88.308278 
L 176.111315 92.594075 
L 176.133234 96.879873 
L 176.172138 101.16567 
L 176.246413 105.451467 
L 176.385996 109.737264 
L 176.62773 114.023061 
L 177.000822 118.308859 
L 177.505391 122.594656 
L 178.097374 126.880453 
L 178.698909 131.16625 
L 179.242747 135.452047 
L 179.731979 139.737845 
L 180.273178 144.023642 
L 181.049483 148.309439 
L 182.242742 152.595236 
L 183.956554 156.881033 
L 186.189953 161.166831 
L 188.854705 165.452628 
L 191.773375 169.738425 
L 194.624401 174.024222 
L 196.912162 178.31002 
L 198.089375 182.595817 
L 197.822895 186.881614 
L 196.19573 191.167411 
L 193.648439 195.453208 
L 190.714335 199.739006 
L 187.794331 204.024803 
L 185.121905 208.3106 
L 182.841049 212.596397 
L 181.047415 216.882194 
L 179.757317 221.167992 
L 178.879483 225.453789 
L 178.251489 229.739586 
L 177.722698 234.025383 
L 177.219594 238.31118 
L 176.750632 242.596978 
L 176.361268 246.882775 
L 176.083575 251.168572 
L 175.915072 255.454369 
z
" clip-path="url(#p08e7891bfd)" style="fill: #95a3c3; stroke: #595959; stroke-width: 0.5"/>
   </g>
   <g id="PolyCollection_4">
    <path d="M 231.716234 255.71089 
L 231.422516 255.71089 
L 231.253799 251.399301 
L 230.976245 247.087711 
L 230.587275 242.776122 
L 230.118692 238.464533 
L 229.616045 234.152943 
L 229.088486 229.841354 
L 228.462745 225.529765 
L 227.58589 221.218175 
L 226.28969 216.906586 
L 224.476191 212.594996 
L 222.161148 208.283407 
L 219.453886 203.971818 
L 216.527357 199.660228 
L 213.645369 195.348639 
L 211.215845 191.03705 
L 209.740884 186.72546 
L 209.605421 182.413871 
L 210.847787 178.102281 
L 213.127433 173.790692 
L 215.922312 169.479103 
L 218.768343 165.167513 
L 221.360451 160.855924 
L 223.521613 156.544335 
L 225.160989 152.232745 
L 226.283315 147.921156 
L 227.006047 143.609566 
L 227.523255 139.297977 
L 228.018785 134.986388 
L 228.587085 130.674798 
L 229.214181 126.363209 
L 229.820882 122.05162 
L 230.327116 117.74003 
L 230.693801 113.428441 
L 230.927481 109.116851 
L 231.061101 104.805262 
L 231.131941 100.493673 
L 231.16882 96.182083 
L 231.189318 91.870494 
L 231.202338 87.558905 
L 231.211783 83.247315 
L 231.219401 78.935726 
L 231.226457 74.624136 
L 231.234349 70.312547 
L 231.244483 66.000958 
L 231.257883 61.689368 
L 231.274967 57.377779 
L 231.295604 53.06619 
L 231.319279 48.7546 
L 231.345179 44.443011 
L 231.372229 40.131421 
L 231.399206 35.819832 
L 231.424937 31.508243 
L 231.448527 27.196653 
L 231.469483 22.885064 
L 231.487699 18.573475 
L 231.50334 14.261885 
L 231.516678 9.950296 
L 231.527973 5.638706 
L 231.537418 1.327117 
L 231.545143 -2.984472 
L 231.55126 -7.296062 
L 231.55589 -11.607651 
L 231.559189 -15.91924 
L 231.561351 -20.23083 
L 231.562631 -24.542419 
L 231.563335 -28.854009 
L 231.563777 -33.165598 
L 231.564209 -37.477187 
L 231.564752 -41.788777 
L 231.565398 -46.100366 
L 231.566063 -50.411955 
L 231.566666 -54.723545 
L 231.567168 -59.035134 
L 231.567566 -63.346724 
L 231.567865 -67.658313 
L 231.568061 -71.969902 
L 231.568151 -76.281492 
L 231.568145 -80.593081 
L 231.568066 -84.90467 
L 231.567936 -89.21626 
L 231.567755 -93.527849 
L 231.567509 -97.839439 
L 231.567188 -102.151028 
L 231.566791 -106.462617 
L 231.566317 -110.774207 
L 231.565748 -115.085796 
L 231.565067 -119.397385 
L 231.564291 -123.708975 
L 231.563511 -128.020564 
L 231.562896 -132.332154 
L 231.562646 -136.643743 
L 231.562909 -140.955332 
L 231.563702 -145.266922 
L 231.564879 -149.578511 
L 231.566185 -153.8901 
L 231.567362 -158.20169 
L 231.568252 -162.513279 
L 231.568824 -166.824869 
L 231.569138 -171.136458 
L 231.569612 -171.136458 
L 231.569612 -171.136458 
L 231.569926 -166.824869 
L 231.570498 -162.513279 
L 231.571388 -158.20169 
L 231.572565 -153.8901 
L 231.573871 -149.578511 
L 231.575048 -145.266922 
L 231.575841 -140.955332 
L 231.576104 -136.643743 
L 231.575854 -132.332154 
L 231.575239 -128.020564 
L 231.574459 -123.708975 
L 231.573683 -119.397385 
L 231.573002 -115.085796 
L 231.572433 -110.774207 
L 231.571959 -106.462617 
L 231.571562 -102.151028 
L 231.571241 -97.839439 
L 231.570995 -93.527849 
L 231.570814 -89.21626 
L 231.570684 -84.90467 
L 231.570605 -80.593081 
L 231.570599 -76.281492 
L 231.570689 -71.969902 
L 231.570885 -67.658313 
L 231.571184 -63.346724 
L 231.571582 -59.035134 
L 231.572084 -54.723545 
L 231.572687 -50.411955 
L 231.573352 -46.100366 
L 231.573998 -41.788777 
L 231.574541 -37.477187 
L 231.574973 -33.165598 
L 231.575415 -28.854009 
L 231.576119 -24.542419 
L 231.577399 -20.23083 
L 231.579561 -15.91924 
L 231.58286 -11.607651 
L 231.58749 -7.296062 
L 231.593607 -2.984472 
L 231.601332 1.327117 
L 231.610777 5.638706 
L 231.622072 9.950296 
L 231.63541 14.261885 
L 231.651051 18.573475 
L 231.669267 22.885064 
L 231.690223 27.196653 
L 231.713813 31.508243 
L 231.739544 35.819832 
L 231.766521 40.131421 
L 231.793571 44.443011 
L 231.819471 48.7546 
L 231.843146 53.06619 
L 231.863783 57.377779 
L 231.880867 61.689368 
L 231.894267 66.000958 
L 231.904401 70.312547 
L 231.912293 74.624136 
L 231.919349 78.935726 
L 231.926967 83.247315 
L 231.936412 87.558905 
L 231.949432 91.870494 
L 231.96993 96.182083 
L 232.006809 100.493673 
L 232.077649 104.805262 
L 232.211269 109.116851 
L 232.444949 113.428441 
L 232.811634 117.74003 
L 233.317868 122.05162 
L 233.924569 126.363209 
L 234.551665 130.674798 
L 235.119965 134.986388 
L 235.615495 139.297977 
L 236.132703 143.609566 
L 236.855435 147.921156 
L 237.977761 152.232745 
L 239.617137 156.544335 
L 241.778299 160.855924 
L 244.370407 165.167513 
L 247.216438 169.479103 
L 250.011317 173.790692 
L 252.290963 178.102281 
L 253.533329 182.413871 
L 253.397866 186.72546 
L 251.922905 191.03705 
L 249.493381 195.348639 
L 246.611393 199.660228 
L 243.684864 203.971818 
L 240.977602 208.283407 
L 238.662559 212.594996 
L 236.84906 216.906586 
L 235.55286 221.218175 
L 234.676005 225.529765 
L 234.050264 229.841354 
L 233.522705 234.152943 
L 233.020058 238.464533 
L 232.551475 242.776122 
L 232.162505 247.087711 
L 231.884951 251.399301 
L 231.716234 255.71089 
z
" clip-path="url(#p08e7891bfd)" style="fill: #db96c0; stroke: #595959; stroke-width: 0.5"/>
   </g>
   <g id="PolyCollection_5">
    <path d="M 287.522498 255.429826 
L 287.216252 255.429826 
L 287.039147 251.080041 
L 286.748865 246.730256 
L 286.345683 242.380471 
L 285.86637 238.030685 
L 285.358684 233.6809 
L 284.825504 229.331115 
L 284.178744 224.98133 
L 283.250964 220.631545 
L 281.871795 216.281759 
L 279.957608 211.931974 
L 277.545765 207.582189 
L 274.761749 203.232404 
L 271.790198 198.882618 
L 268.917293 194.532833 
L 266.586946 190.183048 
L 265.321084 185.833263 
L 265.471446 181.483478 
L 266.995724 177.133692 
L 269.477761 172.783907 
L 272.369811 168.434122 
L 275.226026 164.084337 
L 277.767597 159.734551 
L 279.83391 155.384766 
L 281.351847 151.034981 
L 282.357155 146.685196 
L 283.002104 142.335411 
L 283.497192 137.985625 
L 284.012835 133.63584 
L 284.610562 129.286055 
L 285.246525 124.93627 
L 285.830955 120.586485 
L 286.292592 116.236699 
L 286.609224 111.886914 
L 286.800837 107.537129 
L 286.905687 103.187344 
L 286.959819 98.837558 
L 286.988079 94.487773 
L 287.004285 90.137988 
L 287.015043 85.788203 
L 287.023391 81.438418 
L 287.03101 77.088632 
L 287.039142 72.738847 
L 287.048762 68.389062 
L 287.060534 64.039277 
L 287.074862 59.689491 
L 287.092006 55.339706 
L 287.112112 50.989921 
L 287.135045 46.640136 
L 287.160203 42.290351 
L 287.186513 37.940565 
L 287.212671 33.59078 
L 287.237464 29.240995 
L 287.260034 24.89121 
L 287.279969 20.541425 
L 287.29724 16.191639 
L 287.312032 11.841854 
L 287.324569 7.492069 
L 287.335025 3.142284 
L 287.34352 -1.207502 
L 287.35017 -5.557287 
L 287.355132 -9.907072 
L 287.358629 -14.256857 
L 287.36094 -18.606642 
L 287.362379 -22.956428 
L 287.363259 -27.306213 
L 287.363855 -31.655998 
L 287.364367 -36.005783 
L 287.364907 -40.355569 
L 287.365507 -44.705354 
L 287.366135 -49.055139 
L 287.366735 -53.404924 
L 287.367252 -57.754709 
L 287.36765 -62.104495 
L 287.367921 -66.45428 
L 287.368077 -70.804065 
L 287.368141 -75.15385 
L 287.368141 -79.503635 
L 287.368096 -83.853421 
L 287.36801 -88.203206 
L 287.367875 -92.552991 
L 287.367676 -96.902776 
L 287.367397 -101.252562 
L 287.367026 -105.602347 
L 287.366551 -109.952132 
L 287.365969 -114.301917 
L 287.365291 -118.651702 
L 287.364561 -123.001488 
L 287.363862 -127.351273 
L 287.363314 -131.701058 
L 287.363057 -136.050843 
L 287.363208 -140.400629 
L 287.363811 -144.750414 
L 287.364793 -149.100199 
L 287.365969 -153.449984 
L 287.36711 -157.799769 
L 287.368038 -162.149555 
L 287.368678 -166.49934 
L 287.369056 -170.849125 
L 287.369247 -175.19891 
L 287.369503 -175.19891 
L 287.369503 -175.19891 
L 287.369694 -170.849125 
L 287.370072 -166.49934 
L 287.370712 -162.149555 
L 287.37164 -157.799769 
L 287.372781 -153.449984 
L 287.373957 -149.100199 
L 287.374939 -144.750414 
L 287.375542 -140.400629 
L 287.375693 -136.050843 
L 287.375436 -131.701058 
L 287.374888 -127.351273 
L 287.374189 -123.001488 
L 287.373459 -118.651702 
L 287.372781 -114.301917 
L 287.372199 -109.952132 
L 287.371724 -105.602347 
L 287.371353 -101.252562 
L 287.371074 -96.902776 
L 287.370875 -92.552991 
L 287.37074 -88.203206 
L 287.370654 -83.853421 
L 287.370609 -79.503635 
L 287.370609 -75.15385 
L 287.370673 -70.804065 
L 287.370829 -66.45428 
L 287.3711 -62.104495 
L 287.371498 -57.754709 
L 287.372015 -53.404924 
L 287.372615 -49.055139 
L 287.373243 -44.705354 
L 287.373843 -40.355569 
L 287.374383 -36.005783 
L 287.374895 -31.655998 
L 287.375491 -27.306213 
L 287.376371 -22.956428 
L 287.37781 -18.606642 
L 287.380121 -14.256857 
L 287.383618 -9.907072 
L 287.38858 -5.557287 
L 287.39523 -1.207502 
L 287.403725 3.142284 
L 287.414181 7.492069 
L 287.426718 11.841854 
L 287.44151 16.191639 
L 287.458781 20.541425 
L 287.478716 24.89121 
L 287.501286 29.240995 
L 287.526079 33.59078 
L 287.552237 37.940565 
L 287.578547 42.290351 
L 287.603705 46.640136 
L 287.626638 50.989921 
L 287.646744 55.339706 
L 287.663888 59.689491 
L 287.678216 64.039277 
L 287.689988 68.389062 
L 287.699608 72.738847 
L 287.70774 77.088632 
L 287.715359 81.438418 
L 287.723707 85.788203 
L 287.734465 90.137988 
L 287.750671 94.487773 
L 287.778931 98.837558 
L 287.833063 103.187344 
L 287.937913 107.537129 
L 288.129526 111.886914 
L 288.446158 116.236699 
L 288.907795 120.586485 
L 289.492225 124.93627 
L 290.128188 129.286055 
L 290.725915 133.63584 
L 291.241558 137.985625 
L 291.736646 142.335411 
L 292.381595 146.685196 
L 293.386903 151.034981 
L 294.90484 155.384766 
L 296.971153 159.734551 
L 299.512724 164.084337 
L 302.368939 168.434122 
L 305.260989 172.783907 
L 307.743026 177.133692 
L 309.267304 181.483478 
L 309.417666 185.833263 
L 308.151804 190.183048 
L 305.821457 194.532833 
L 302.948552 198.882618 
L 299.977001 203.232404 
L 297.192985 207.582189 
L 294.781142 211.931974 
L 292.866955 216.281759 
L 291.487786 220.631545 
L 290.560006 224.98133 
L 289.913246 229.331115 
L 289.380066 233.6809 
L 288.87238 238.030685 
L 288.393067 242.380471 
L 287.989885 246.730256 
L 287.699603 251.080041 
L 287.522498 255.429826 
z
" clip-path="url(#p08e7891bfd)" style="fill: #a2c865; stroke: #595959; stroke-width: 0.5"/>
   </g>
   <g id="matplotlib.axis_1">
    <g id="xtick_1">
     <g id="line2d_1">
      <defs>
       <path id="m95fee0f3a0" d="M 0 0 
L 0 3.5 
" style="stroke: #000000; stroke-width: 0.8"/>
      </defs>
      <g>
       <use xlink:href="#m95fee0f3a0" x="64.169375" y="233.266875" style="stroke: #000000; stroke-width: 0.8"/>
      </g>
     </g>
     <g id="text_1">
      <!-- 10$^2$ -->
      <g transform="translate(54.569375 248.948125)">
       <text>
        <tspan style="font: 12px 'Helvetica'" x="0 6.673828" y="-0.171875">10</tspan>
        <tspan style="font: 8.4px 'DejaVu Sans'" x="13.4625" y="-4.765625">2</tspan>
       </text>
      </g>
     </g>
    </g>
    <g id="xtick_2">
     <g id="line2d_2">
      <g>
       <use xlink:href="#m95fee0f3a0" x="119.969375" y="233.266875" style="stroke: #000000; stroke-width: 0.8"/>
      </g>
     </g>
     <g id="text_2">
      <!-- 10$^3$ -->
      <g transform="translate(110.369375 248.948125)">
       <text>
        <tspan style="font: 12px 'Helvetica'" x="0 6.673828" y="-0.171875">10</tspan>
        <tspan style="font: 8.4px 'DejaVu Sans'" x="13.4625" y="-4.765625">3</tspan>
       </text>
      </g>
     </g>
    </g>
    <g id="xtick_3">
     <g id="line2d_3">
      <g>
       <use xlink:href="#m95fee0f3a0" x="175.769375" y="233.266875" style="stroke: #000000; stroke-width: 0.8"/>
      </g>
     </g>
     <g id="text_3">
      <!-- 10$^4$ -->
      <g transform="translate(166.169375 248.880625)">
       <text>
        <tspan style="font: 12px 'Helvetica'" x="0 6.673828" y="-0.28125">10</tspan>
        <tspan style="font: 8.4px 'DejaVu Sans'" x="13.4625" y="-4.875">4</tspan>
       </text>
      </g>
     </g>
    </g>
    <g id="xtick_4">
     <g id="line2d_4">
      <g>
       <use xlink:href="#m95fee0f3a0" x="231.569375" y="233.266875" style="stroke: #000000; stroke-width: 0.8"/>
      </g>
     </g>
     <g id="text_4">
      <!-- 10$^5$ -->
      <g transform="translate(221.969375 248.880625)">
       <text>
        <tspan style="font: 12px 'Helvetica'" x="0 6.673828" y="-0.28125">10</tspan>
        <tspan style="font: 8.4px 'DejaVu Sans'" x="13.4625" y="-4.875">5</tspan>
       </text>
      </g>
     </g>
    </g>
    <g id="xtick_5">
     <g id="line2d_5">
      <g>
       <use xlink:href="#m95fee0f3a0" x="287.369375" y="233.266875" style="stroke: #000000; stroke-width: 0.8"/>
      </g>
     </g>
     <g id="text_5">
      <!-- 10$^6$ -->
      <g transform="translate(277.769375 248.948125)">
       <text>
        <tspan style="font: 12px 'Helvetica'" x="0 6.673828" y="-0.171875">10</tspan>
        <tspan style="font: 8.4px 'DejaVu Sans'" x="13.4625" y="-4.765625">6</tspan>
       </text>
      </g>
     </g>
    </g>
    <g id="text_6">
     <text style="font: 12px 'Helvetica', sans-serif; text-anchor: middle" x="175.769375" y="264.275" transform="rotate(-0 175.769375 264.275)">Spectral library size</text>
    </g>
   </g>
   <g id="matplotlib.axis_2">
    <g id="ytick_1">
     <g id="line2d_6">
      <defs>
       <path id="mee8a0f2c44" d="M 0 0 
L -3.5 0 
" style="stroke: #000000; stroke-width: 0.8"/>
      </defs>
      <g>
       <use xlink:href="#mee8a0f2c44" x="36.269375" y="233.266875" style="stroke: #000000; stroke-width: 0.8"/>
      </g>
     </g>
     <g id="text_7">
      <text style="font: 12px 'Helvetica', sans-serif; text-anchor: end" x="29.269375" y="237.57375" transform="rotate(-0 29.269375 237.57375)">0</text>
     </g>
    </g>
    <g id="ytick_2">
     <g id="line2d_7">
      <g>
       <use xlink:href="#mee8a0f2c44" x="36.269375" y="188.914875" style="stroke: #000000; stroke-width: 0.8"/>
      </g>
     </g>
     <g id="text_8">
      <text style="font: 12px 'Helvetica', sans-serif; text-anchor: end" x="29.269375" y="193.22175" transform="rotate(-0 29.269375 193.22175)">1</text>
     </g>
    </g>
    <g id="ytick_3">
     <g id="line2d_8">
      <g>
       <use xlink:href="#mee8a0f2c44" x="36.269375" y="144.562875" style="stroke: #000000; stroke-width: 0.8"/>
      </g>
     </g>
     <g id="text_9">
      <text style="font: 12px 'Helvetica', sans-serif; text-anchor: end" x="29.269375" y="148.86975" transform="rotate(-0 29.269375 148.86975)">2</text>
     </g>
    </g>
    <g id="ytick_4">
     <g id="line2d_9">
      <g>
       <use xlink:href="#mee8a0f2c44" x="36.269375" y="100.210875" style="stroke: #000000; stroke-width: 0.8"/>
      </g>
     </g>
     <g id="text_10">
      <text style="font: 12px 'Helvetica', sans-serif; text-anchor: end" x="29.269375" y="104.51775" transform="rotate(-0 29.269375 104.51775)">3</text>
     </g>
    </g>
    <g id="ytick_5">
     <g id="line2d_10">
      <g>
       <use xlink:href="#mee8a0f2c44" x="36.269375" y="55.858875" style="stroke: #000000; stroke-width: 0.8"/>
      </g>
     </g>
     <g id="text_11">
      <text style="font: 12px 'Helvetica', sans-serif; text-anchor: end" x="29.269375" y="60.16575" transform="rotate(-0 29.269375 60.16575)">4</text>
     </g>
    </g>
    <g id="ytick_6">
     <g id="line2d_11">
      <g>
       <use xlink:href="#mee8a0f2c44" x="36.269375" y="11.506875" style="stroke: #000000; stroke-width: 0.8"/>
      </g>
     </g>
     <g id="text_12">
      <text style="font: 12px 'Helvetica', sans-serif; text-anchor: end" x="29.269375" y="15.81375" transform="rotate(-0 29.269375 15.81375)">5</text>
     </g>
    </g>
    <g id="text_13">
     <text style="font: 12px 'Helvetica', sans-serif; text-anchor: middle" x="16.048125" y="122.386875" transform="rotate(-90 16.048125 122.386875)">Spectral entropy distribution</text>
    </g>
   </g>
   <g id="line2d_12">
    <path d="M 47.307785 194.230297 
L 81.030965 194.230297 
" clip-path="url(#p08e7891bfd)" style="fill: none; stroke-dasharray: 0.375,0.375; stroke-dashoffset: 0; stroke: #595959; stroke-width: 0.5"/>
   </g>
   <g id="line2d_13">
    <path d="M 44.960729 184.541222 
L 83.378021 184.541222 
" clip-path="url(#p08e7891bfd)" style="fill: none; stroke-dasharray: 0.75,0.75; stroke-dashoffset: 0; stroke: #595959; stroke-width: 0.5"/>
   </g>
   <g id="line2d_14">
    <path d="M 52.73087 166.680008 
L 75.60788 166.680008 
" clip-path="url(#p08e7891bfd)" style="fill: none; stroke-dasharray: 0.375,0.375; stroke-dashoffset: 0; stroke: #595959; stroke-width: 0.5"/>
   </g>
   <g id="line2d_15">
    <path d="M 99.550605 191.738161 
L 140.388145 191.738161 
" clip-path="url(#p08e7891bfd)" style="fill: none; stroke-dasharray: 0.375,0.375; stroke-dashoffset: 0; stroke: #595959; stroke-width: 0.5"/>
   </g>
   <g id="line2d_16">
    <path d="M 98.213333 184.541222 
L 141.725417 184.541222 
" clip-path="url(#p08e7891bfd)" style="fill: none; stroke-dasharray: 0.75,0.75; stroke-dashoffset: 0; stroke: #595959; stroke-width: 0.5"/>
   </g>
   <g id="line2d_17">
    <path d="M 104.176736 167.976602 
L 135.762014 167.976602 
" clip-path="url(#p08e7891bfd)" style="fill: none; stroke-dasharray: 0.375,0.375; stroke-dashoffset: 0; stroke: #595959; stroke-width: 0.5"/>
   </g>
   <g id="line2d_18">
    <path d="M 155.547284 192.67577 
L 195.991466 192.67577 
" clip-path="url(#p08e7891bfd)" style="fill: none; stroke-dasharray: 0.375,0.375; stroke-dashoffset: 0; stroke: #595959; stroke-width: 0.5"/>
   </g>
   <g id="line2d_19">
    <path d="M 153.672575 184.541222 
L 197.866175 184.541222 
" clip-path="url(#p08e7891bfd)" style="fill: none; stroke-dasharray: 0.75,0.75; stroke-dashoffset: 0; stroke: #595959; stroke-width: 0.5"/>
   </g>
   <g id="line2d_20">
    <path d="M 159.925415 168.135862 
L 191.613335 168.135862 
" clip-path="url(#p08e7891bfd)" style="fill: none; stroke-dasharray: 0.375,0.375; stroke-dashoffset: 0; stroke: #595959; stroke-width: 0.5"/>
   </g>
   <g id="line2d_21">
    <path d="M 213.824609 194.134079 
L 249.314141 194.134079 
" clip-path="url(#p08e7891bfd)" style="fill: none; stroke-dasharray: 0.375,0.375; stroke-dashoffset: 0; stroke: #595959; stroke-width: 0.5"/>
   </g>
   <g id="line2d_22">
    <path d="M 209.82506 184.541222 
L 253.31369 184.541222 
" clip-path="url(#p08e7891bfd)" style="fill: none; stroke-dasharray: 0.75,0.75; stroke-dashoffset: 0; stroke: #595959; stroke-width: 0.5"/>
   </g>
   <g id="line2d_23">
    <path d="M 216.078783 167.976602 
L 247.059967 167.976602 
" clip-path="url(#p08e7891bfd)" style="fill: none; stroke-dasharray: 0.375,0.375; stroke-dashoffset: 0; stroke: #595959; stroke-width: 0.5"/>
   </g>
   <g id="line2d_24">
    <path d="M 269.101814 194.134079 
L 305.636936 194.134079 
" clip-path="url(#p08e7891bfd)" style="fill: none; stroke-dasharray: 0.375,0.375; stroke-dashoffset: 0; stroke: #595959; stroke-width: 0.5"/>
   </g>
   <g id="line2d_25">
    <path d="M 265.541566 184.541222 
L 309.197184 184.541222 
" clip-path="url(#p08e7891bfd)" style="fill: none; stroke-dasharray: 0.75,0.75; stroke-dashoffset: 0; stroke: #595959; stroke-width: 0.5"/>
   </g>
   <g id="line2d_26">
    <path d="M 272.519807 167.976602 
L 302.218943 167.976602 
" clip-path="url(#p08e7891bfd)" style="fill: none; stroke-dasharray: 0.375,0.375; stroke-dashoffset: 0; stroke: #595959; stroke-width: 0.5"/>
   </g>
   <g id="patch_3">
    <path d="M 36.269375 233.266875 
L 36.269375 11.506875 
" style="fill: none; stroke: #000000; stroke-width: 0.8; stroke-linejoin: miter; stroke-linecap: square"/>
   </g>
   <g id="patch_4">
    <path d="M 315.269375 233.266875 
L 315.269375 11.506875 
" style="fill: none; stroke: #000000; stroke-width: 0.8; stroke-linejoin: miter; stroke-linecap: square"/>
   </g>
   <g id="patch_5">
    <path d="M 36.269375 233.266875 
L 315.269375 233.266875 
" style="fill: none; stroke: #000000; stroke-width: 0.8; stroke-linejoin: miter; stroke-linecap: square"/>
   </g>
   <g id="patch_6">
    <path d="M 36.269375 11.506875 
L 315.269375 11.506875 
" style="fill: none; stroke: #000000; stroke-width: 0.8; stroke-linejoin: miter; stroke-linecap: square"/>
   </g>
  </g>
 </g>
 <defs>
  <clipPath id="p08e7891bfd">
   <rect x="36.269375" y="11.506875" width="279" height="221.76"/>
  </clipPath>
 </defs>
</svg>
