<?xml version="1.0" encoding="utf-8" standalone="no"?>
<!DOCTYPE svg PUBLIC "-//W3C//DTD SVG 1.1//EN"
  "http://www.w3.org/Graphics/SVG/1.1/DTD/svg11.dtd">
<svg xmlns:xlink="http://www.w3.org/1999/xlink" width="322.469375pt" height="274.023125pt" viewBox="0 0 322.469375 274.023125" xmlns="http://www.w3.org/2000/svg" version="1.1">
 <metadata>
  <rdf:RDF xmlns:dc="http://purl.org/dc/elements/1.1/" xmlns:cc="http://creativecommons.org/ns#" xmlns:rdf="http://www.w3.org/1999/02/22-rdf-syntax-ns#">
   <cc:Work>
    <dc:type rdf:resource="http://purl.org/dc/dcmitype/StillImage"/>
    <dc:date>2023-03-13T19:43:49.682194</dc:date>
    <dc:format>image/svg+xml</dc:format>
    <dc:creator>
     <cc:Agent>
      <dc:title>Matplotlib v3.6.2, https://matplotlib.org/</dc:title>
     </cc:Agent>
    </dc:creator>
   </cc:Work>
  </rdf:RDF>
 </metadata>
 <defs>
  <style type="text/css">*{stroke-linejoin: round; stroke-linecap: butt}</style>
 </defs>
 <g id="figure_1">
  <g id="patch_1">
   <path d="M 0 274.023125 
L 322.469375 274.023125 
L 322.469375 0 
L 0 0 
z
" style="fill: #ffffff"/>
  </g>
  <g id="axes_1">
   <g id="patch_2">
    <path d="M 36.269375 233.266875 
L 315.269375 233.266875 
L 315.269375 11.506875 
L 36.269375 11.506875 
z
" style="fill: #ffffff"/>
   </g>
   <g id="PolyCollection_1">
    <path d="M 65.257909 275.360983 
L 63.080841 275.360983 
L 62.491803 270.791979 
L 61.692182 266.222975 
L 60.660633 261.653972 
L 59.395754 257.084968 
L 57.920769 252.515965 
L 56.283444 247.946961 
L 54.550338 243.377958 
L 52.796403 238.808954 
L 51.09266 234.23995 
L 49.495556 229.670947 
L 48.041071 225.101943 
L 46.744848 220.53294 
L 45.607434 215.963936 
L 44.62204 211.394933 
L 43.781845 206.825929 
L 43.084653 202.256926 
L 42.534218 197.687922 
L 42.138784 193.118918 
L 41.908019 188.549915 
L 41.849375 183.980911 
L 41.964546 179.411908 
L 42.246417 174.842904 
L 42.677017 170.273901 
L 43.227168 165.704897 
L 43.858528 161.135893 
L 44.528273 156.56689 
L 45.195785 151.997886 
L 45.8299 147.428883 
L 46.414773 142.859879 
L 46.952694 138.290876 
L 47.462953 133.721872 
L 47.976989 129.152868 
L 48.530974 124.583865 
L 49.157562 120.014861 
L 49.878571 115.445858 
L 50.700052 110.876854 
L 51.610685 106.307851 
L 52.583783 101.738847 
L 53.582499 97.169844 
L 54.567125 92.60084 
L 55.502838 88.031836 
L 56.366009 83.462833 
L 57.147521 78.893829 
L 57.852335 74.324826 
L 58.495654 69.755822 
L 59.097008 65.186819 
L 59.674105 60.617815 
L 60.238174 56.048811 
L 60.791831 51.479808 
L 61.329603 46.910804 
L 61.840468 42.341801 
L 62.311325 37.772797 
L 62.730324 33.203794 
L 63.089297 28.63479 
L 63.384937 24.065786 
L 63.618784 19.496783 
L 63.796333 14.927779 
L 63.925666 10.358776 
L 64.016013 5.789772 
L 64.076506 1.220769 
L 64.115308 -3.348235 
L 64.13914 -7.917238 
L 64.153146 -12.486242 
L 64.161021 -17.055246 
L 64.165253 -21.624249 
L 64.167426 -26.193253 
L 64.168492 -30.762256 
L 64.168989 -35.33126 
L 64.169206 -39.900263 
L 64.169283 -44.469267 
L 64.169279 -49.038271 
L 64.169196 -53.607274 
L 64.168986 -58.176278 
L 64.168543 -62.745281 
L 64.167667 -67.314285 
L 64.166027 -71.883288 
L 64.163113 -76.452292 
L 64.158202 -81.021295 
L 64.150357 -85.590299 
L 64.138493 -90.159303 
L 64.121536 -94.728306 
L 64.098679 -99.29731 
L 64.069712 -103.866313 
L 64.035344 -108.435317 
L 63.99742 -113.00432 
L 63.958922 -117.573324 
L 63.923662 -122.142328 
L 63.895699 -126.711331 
L 63.878587 -131.280335 
L 63.874627 -135.849338 
L 63.884365 -140.418342 
L 63.906469 -144.987345 
L 63.938022 -149.556349 
L 63.97516 -154.125353 
L 64.013841 -158.694356 
L 64.050552 -163.26336 
L 64.082777 -167.832363 
L 64.109167 -172.401367 
L 64.129443 -176.97037 
L 64.209307 -176.97037 
L 64.209307 -176.97037 
L 64.229583 -172.401367 
L 64.255973 -167.832363 
L 64.288198 -163.26336 
L 64.324909 -158.694356 
L 64.36359 -154.125353 
L 64.400728 -149.556349 
L 64.432281 -144.987345 
L 64.454385 -140.418342 
L 64.464123 -135.849338 
L 64.460163 -131.280335 
L 64.443051 -126.711331 
L 64.415088 -122.142328 
L 64.379828 -117.573324 
L 64.34133 -113.00432 
L 64.303406 -108.435317 
L 64.269038 -103.866313 
L 64.240071 -99.29731 
L 64.217214 -94.728306 
L 64.200257 -90.159303 
L 64.188393 -85.590299 
L 64.180548 -81.021295 
L 64.175637 -76.452292 
L 64.172723 -71.883288 
L 64.171083 -67.314285 
L 64.170207 -62.745281 
L 64.169764 -58.176278 
L 64.169554 -53.607274 
L 64.169471 -49.038271 
L 64.169467 -44.469267 
L 64.169544 -39.900263 
L 64.169761 -35.33126 
L 64.170258 -30.762256 
L 64.171324 -26.193253 
L 64.173497 -21.624249 
L 64.177729 -17.055246 
L 64.185604 -12.486242 
L 64.19961 -7.917238 
L 64.223442 -3.348235 
L 64.262244 1.220769 
L 64.322737 5.789772 
L 64.413084 10.358776 
L 64.542417 14.927779 
L 64.719966 19.496783 
L 64.953813 24.065786 
L 65.249453 28.63479 
L 65.608426 33.203794 
L 66.027425 37.772797 
L 66.498282 42.341801 
L 67.009147 46.910804 
L 67.546919 51.479808 
L 68.100576 56.048811 
L 68.664645 60.617815 
L 69.241742 65.186819 
L 69.843096 69.755822 
L 70.486415 74.324826 
L 71.191229 78.893829 
L 71.972741 83.462833 
L 72.835912 88.031836 
L 73.771625 92.60084 
L 74.756251 97.169844 
L 75.754967 101.738847 
L 76.728065 106.307851 
L 77.638698 110.876854 
L 78.460179 115.445858 
L 79.181188 120.014861 
L 79.807776 124.583865 
L 80.361761 129.152868 
L 80.875797 133.721872 
L 81.386056 138.290876 
L 81.923977 142.859879 
L 82.50885 147.428883 
L 83.142965 151.997886 
L 83.810477 156.56689 
L 84.480222 161.135893 
L 85.111582 165.704897 
L 85.661733 170.273901 
L 86.092333 174.842904 
L 86.374204 179.411908 
L 86.489375 183.980911 
L 86.430731 188.549915 
L 86.199966 193.118918 
L 85.804532 197.687922 
L 85.254097 202.256926 
L 84.556905 206.825929 
L 83.71671 211.394933 
L 82.731316 215.963936 
L 81.593902 220.53294 
L 80.297679 225.101943 
L 78.843194 229.670947 
L 77.24609 234.23995 
L 75.542347 238.808954 
L 73.788412 243.377958 
L 72.055306 247.946961 
L 70.417981 252.515965 
L 68.942996 257.084968 
L 67.678117 261.653972 
L 66.646568 266.222975 
L 65.846947 270.791979 
L 65.257909 275.360983 
z
" clip-path="url(#pd5ed6b5049)" style="fill: #72b6a1; stroke: #595959; stroke-width: 0.5"/>
   </g>
   <g id="PolyCollection_2">
    <path d="M 121.064969 274.053157 
L 118.873781 274.053157 
L 118.358555 270.171131 
L 117.677594 266.289106 
L 116.812222 262.407081 
L 115.754978 258.525056 
L 114.513377 254.643031 
L 113.11189 250.761006 
L 111.591375 246.878981 
L 110.005652 242.996955 
L 108.41561 239.11493 
L 106.881917 235.232905 
L 105.457775 231.35088 
L 104.183183 227.468855 
L 103.081781 223.58683 
L 102.160619 219.704805 
L 101.412474 215.82278 
L 100.81981 211.940754 
L 100.359244 208.058729 
L 100.005577 204.176704 
L 99.734813 200.294679 
L 99.526044 196.412654 
L 99.362403 192.530629 
L 99.231437 188.648604 
L 99.125191 184.766579 
L 99.040166 180.884553 
L 98.97717 177.002528 
L 98.940975 173.120503 
L 98.939721 169.238478 
L 98.984029 165.356453 
L 99.085889 161.474428 
L 99.257394 157.592403 
L 99.509467 153.710378 
L 99.85067 149.828352 
L 100.286192 145.946327 
L 100.817094 142.064302 
L 101.43988 138.182277 
L 102.146469 134.300252 
L 102.924595 130.418227 
L 103.758651 126.536202 
L 104.630892 122.654177 
L 105.522868 118.772151 
L 106.416876 114.890126 
L 107.297241 111.008101 
L 108.151241 107.126076 
L 108.969562 103.244051 
L 109.746293 99.362026 
L 110.478535 95.480001 
L 111.165757 91.597975 
L 111.809099 87.71595 
L 112.410735 83.833925 
L 112.973418 79.9519 
L 113.500201 76.069875 
L 113.994318 72.18785 
L 114.459125 68.305825 
L 114.898028 64.4238 
L 115.314349 60.541774 
L 115.711109 56.659749 
L 116.09078 52.777724 
L 116.455062 48.895699 
L 116.804743 45.013674 
L 117.139695 41.131649 
L 117.459006 37.249624 
L 117.761218 33.367599 
L 118.044623 29.485573 
L 118.307559 25.603548 
L 118.54865 21.721523 
L 118.766978 17.839498 
L 118.962161 13.957473 
L 119.134369 10.075448 
L 119.284284 6.193423 
L 119.413032 2.311398 
L 119.522094 -1.570628 
L 119.613222 -5.452653 
L 119.68833 -9.334678 
L 119.749405 -13.216703 
L 119.798408 -17.098728 
L 119.837185 -20.980753 
L 119.86741 -24.862778 
L 119.890539 -28.744803 
L 119.907811 -32.626829 
L 119.920267 -36.508854 
L 119.928792 -40.390879 
L 119.934164 -44.272904 
L 119.937096 -48.154929 
L 119.938267 -52.036954 
L 119.938323 -55.918979 
L 119.937866 -59.801005 
L 119.93742 -63.68303 
L 119.9374 -67.565055 
L 119.938081 -71.44708 
L 119.939585 -75.329105 
L 119.941885 -79.21113 
L 119.944835 -83.093155 
L 119.948209 -86.97518 
L 119.95175 -90.857206 
L 119.955211 -94.739231 
L 119.958394 -98.621256 
L 119.961162 -102.503281 
L 119.96345 -106.385306 
L 119.965253 -110.267331 
L 119.973497 -110.267331 
L 119.973497 -110.267331 
L 119.9753 -106.385306 
L 119.977588 -102.503281 
L 119.980356 -98.621256 
L 119.983539 -94.739231 
L 119.987 -90.857206 
L 119.990541 -86.97518 
L 119.993915 -83.093155 
L 119.996865 -79.21113 
L 119.999165 -75.329105 
L 120.000669 -71.44708 
L 120.00135 -67.565055 
L 120.00133 -63.68303 
L 120.000884 -59.801005 
L 120.000427 -55.918979 
L 120.000483 -52.036954 
L 120.001654 -48.154929 
L 120.004586 -44.272904 
L 120.009958 -40.390879 
L 120.018483 -36.508854 
L 120.030939 -32.626829 
L 120.048211 -28.744803 
L 120.07134 -24.862778 
L 120.101565 -20.980753 
L 120.140342 -17.098728 
L 120.189345 -13.216703 
L 120.25042 -9.334678 
L 120.325528 -5.452653 
L 120.416656 -1.570628 
L 120.525718 2.311398 
L 120.654466 6.193423 
L 120.804381 10.075448 
L 120.976589 13.957473 
L 121.171772 17.839498 
L 121.3901 21.721523 
L 121.631191 25.603548 
L 121.894127 29.485573 
L 122.177532 33.367599 
L 122.479744 37.249624 
L 122.799055 41.131649 
L 123.134007 45.013674 
L 123.483688 48.895699 
L 123.84797 52.777724 
L 124.227641 56.659749 
L 124.624401 60.541774 
L 125.040722 64.4238 
L 125.479625 68.305825 
L 125.944432 72.18785 
L 126.438549 76.069875 
L 126.965332 79.9519 
L 127.528015 83.833925 
L 128.129651 87.71595 
L 128.772993 91.597975 
L 129.460215 95.480001 
L 130.192457 99.362026 
L 130.969188 103.244051 
L 131.787509 107.126076 
L 132.641509 111.008101 
L 133.521874 114.890126 
L 134.415882 118.772151 
L 135.307858 122.654177 
L 136.180099 126.536202 
L 137.014155 130.418227 
L 137.792281 134.300252 
L 138.49887 138.182277 
L 139.121656 142.064302 
L 139.652558 145.946327 
L 140.08808 149.828352 
L 140.429283 153.710378 
L 140.681356 157.592403 
L 140.852861 161.474428 
L 140.954721 165.356453 
L 140.999029 169.238478 
L 140.997775 173.120503 
L 140.96158 177.002528 
L 140.898584 180.884553 
L 140.813559 184.766579 
L 140.707313 188.648604 
L 140.576347 192.530629 
L 140.412706 196.412654 
L 140.203937 200.294679 
L 139.933173 204.176704 
L 139.579506 208.058729 
L 139.11894 211.940754 
L 138.526276 215.82278 
L 137.778131 219.704805 
L 136.856969 223.58683 
L 135.755567 227.468855 
L 134.480975 231.35088 
L 133.056833 235.232905 
L 131.52314 239.11493 
L 129.933098 242.996955 
L 128.347375 246.878981 
L 126.82686 250.761006 
L 125.425373 254.643031 
L 124.183772 258.525056 
L 123.126528 262.407081 
L 122.261156 266.289106 
L 121.580195 270.171131 
L 121.064969 274.053157 
z
" clip-path="url(#pd5ed6b5049)" style="fill: #e99675; stroke: #595959; stroke-width: 0.5"/>
   </g>
   <g id="PolyCollection_3">
    <path d="M 176.798381 274.615898 
L 174.740369 274.615898 
L 174.117151 269.753861 
L 173.24533 264.891824 
L 172.096069 260.029787 
L 170.668532 255.16775 
L 168.997446 250.305714 
L 167.152994 245.443677 
L 165.231441 240.58164 
L 163.33826 235.719603 
L 161.56864 230.857566 
L 159.991525 225.99553 
L 158.642028 221.133493 
L 157.523624 216.271456 
L 156.617797 211.409419 
L 155.896439 206.547382 
L 155.332292 201.685346 
L 154.904719 196.823309 
L 154.600609 191.961272 
L 154.412177 187.099235 
L 154.333917 182.237199 
L 154.360424 177.375162 
L 154.485714 172.513125 
L 154.703768 167.651088 
L 155.009592 162.789051 
L 155.400035 157.927015 
L 155.873869 153.064978 
L 156.430966 148.202941 
L 157.070766 143.340904 
L 157.790484 138.478867 
L 158.583678 133.616831 
L 159.439651 128.754794 
L 160.343949 123.892757 
L 161.279773 119.03072 
L 162.229857 114.168683 
L 163.17823 109.306647 
L 164.111419 104.44461 
L 165.018953 99.582573 
L 165.893284 94.720536 
L 166.729427 89.858499 
L 167.524584 84.996463 
L 168.277852 80.134426 
L 168.989993 75.272389 
L 169.663111 70.410352 
L 170.300124 65.548316 
L 170.904043 60.686279 
L 171.477152 55.824242 
L 172.020316 50.962205 
L 172.532621 46.100168 
L 173.01147 41.238132 
L 173.453127 36.376095 
L 173.85358 31.514058 
L 174.209481 26.652021 
L 174.518937 21.789984 
L 174.781952 16.927948 
L 175.000474 12.065911 
L 175.178074 7.203874 
L 175.319411 2.341837 
L 175.429649 -2.5202 
L 175.513956 -7.382236 
L 175.577166 -12.244273 
L 175.623599 -17.10631 
L 175.657006 -21.968347 
L 175.680569 -26.830384 
L 175.696927 -31.69242 
L 175.708198 -36.554457 
L 175.716009 -41.416494 
L 175.721544 -46.278531 
L 175.725598 -51.140568 
L 175.728658 -56.002604 
L 175.730976 -60.864641 
L 175.732644 -65.726678 
L 175.733655 -70.588715 
L 175.733956 -75.450751 
L 175.733492 -80.312788 
L 175.732235 -85.174825 
L 175.730217 -90.036862 
L 175.727534 -94.898899 
L 175.724359 -99.760935 
L 175.720926 -104.622972 
L 175.717522 -109.485009 
L 175.714459 -114.347046 
L 175.71205 -119.209083 
L 175.710579 -124.071119 
L 175.710271 -128.933156 
L 175.711263 -133.795193 
L 175.713586 -138.65723 
L 175.717161 -143.519267 
L 175.721803 -148.381303 
L 175.727242 -153.24334 
L 175.733155 -158.105377 
L 175.739199 -162.967414 
L 175.745049 -167.829451 
L 175.750432 -172.691487 
L 175.755149 -177.553524 
L 175.759089 -182.415561 
L 175.762226 -187.277598 
L 175.764606 -192.139634 
L 175.766326 -197.001671 
L 175.767509 -201.863708 
L 175.768283 -206.725745 
L 175.770467 -206.725745 
L 175.770467 -206.725745 
L 175.771241 -201.863708 
L 175.772424 -197.001671 
L 175.774144 -192.139634 
L 175.776524 -187.277598 
L 175.779661 -182.415561 
L 175.783601 -177.553524 
L 175.788318 -172.691487 
L 175.793701 -167.829451 
L 175.799551 -162.967414 
L 175.805595 -158.105377 
L 175.811508 -153.24334 
L 175.816947 -148.381303 
L 175.821589 -143.519267 
L 175.825164 -138.65723 
L 175.827487 -133.795193 
L 175.828479 -128.933156 
L 175.828171 -124.071119 
L 175.8267 -119.209083 
L 175.824291 -114.347046 
L 175.821228 -109.485009 
L 175.817824 -104.622972 
L 175.814391 -99.760935 
L 175.811216 -94.898899 
L 175.808533 -90.036862 
L 175.806515 -85.174825 
L 175.805258 -80.312788 
L 175.804794 -75.450751 
L 175.805095 -70.588715 
L 175.806106 -65.726678 
L 175.807774 -60.864641 
L 175.810092 -56.002604 
L 175.813152 -51.140568 
L 175.817206 -46.278531 
L 175.822741 -41.416494 
L 175.830552 -36.554457 
L 175.841823 -31.69242 
L 175.858181 -26.830384 
L 175.881744 -21.968347 
L 175.915151 -17.10631 
L 175.961584 -12.244273 
L 176.024794 -7.382236 
L 176.109101 -2.5202 
L 176.219339 2.341837 
L 176.360676 7.203874 
L 176.538276 12.065911 
L 176.756798 16.927948 
L 177.019813 21.789984 
L 177.329269 26.652021 
L 177.68517 31.514058 
L 178.085623 36.376095 
L 178.52728 41.238132 
L 179.006129 46.100168 
L 179.518434 50.962205 
L 180.061598 55.824242 
L 180.634707 60.686279 
L 181.238626 65.548316 
L 181.875639 70.410352 
L 182.548757 75.272389 
L 183.260898 80.134426 
L 184.014166 84.996463 
L 184.809323 89.858499 
L 185.645466 94.720536 
L 186.519797 99.582573 
L 187.427331 104.44461 
L 188.36052 109.306647 
L 189.308893 114.168683 
L 190.258977 119.03072 
L 191.194801 123.892757 
L 192.099099 128.754794 
L 192.955072 133.616831 
L 193.748266 138.478867 
L 194.467984 143.340904 
L 195.107784 148.202941 
L 195.664881 153.064978 
L 196.138715 157.927015 
L 196.529158 162.789051 
L 196.834982 167.651088 
L 197.053036 172.513125 
L 197.178326 177.375162 
L 197.204833 182.237199 
L 197.126573 187.099235 
L 196.938141 191.961272 
L 196.634031 196.823309 
L 196.206458 201.685346 
L 195.642311 206.547382 
L 194.920953 211.409419 
L 194.015126 216.271456 
L 192.896722 221.133493 
L 191.547225 225.99553 
L 189.97011 230.857566 
L 188.20049 235.719603 
L 186.307309 240.58164 
L 184.385756 245.443677 
L 182.541304 250.305714 
L 180.870218 255.16775 
L 179.442681 260.029787 
L 178.29342 264.891824 
L 177.421599 269.753861 
L 176.798381 274.615898 
z
" clip-path="url(#pd5ed6b5049)" style="fill: #95a3c3; stroke: #595959; stroke-width: 0.5"/>
   </g>
   <g id="PolyCollection_4">
    <path d="M 232.582873 274.376913 
L 230.555877 274.376913 
L 229.940199 269.531945 
L 229.078155 264.686976 
L 227.940871 259.842007 
L 226.527043 254.997039 
L 224.870291 250.15207 
L 223.038873 245.307101 
L 221.126261 240.462133 
L 219.234484 235.617164 
L 217.455192 230.772195 
L 215.854549 225.927227 
L 214.466577 221.082258 
L 213.296076 216.237289 
L 212.32844 211.392321 
L 211.54154 206.547352 
L 210.915079 201.702383 
L 210.434998 196.857415 
L 210.093185 192.012446 
L 209.884526 187.167477 
L 209.803718 182.322509 
L 209.84345 177.47754 
L 209.994374 172.632572 
L 210.246383 167.787603 
L 210.590298 162.942634 
L 211.019178 158.097666 
L 211.528733 153.252697 
L 212.116734 148.407728 
L 212.781616 143.56276 
L 213.520709 138.717791 
L 214.328664 133.872822 
L 215.196544 129.027854 
L 216.111862 124.182885 
L 217.059512 119.337916 
L 218.023276 114.492948 
L 218.987442 109.647979 
L 219.938113 104.80301 
L 220.863956 99.958042 
L 221.756405 95.113073 
L 222.609475 90.268104 
L 223.419424 85.423136 
L 224.184423 80.578167 
L 224.904281 75.733198 
L 225.580156 70.88823 
L 226.214171 66.043261 
L 226.808884 61.198293 
L 227.366676 56.353324 
L 227.889184 51.508355 
L 228.376951 46.663387 
L 228.829379 41.818418 
L 229.245016 36.973449 
L 229.622068 32.128481 
L 229.958997 27.283512 
L 230.255045 22.438543 
L 230.510566 17.593575 
L 230.727118 12.748606 
L 230.907339 7.903637 
L 231.054677 3.058669 
L 231.173057 -1.7863 
L 231.266565 -6.631269 
L 231.339191 -11.476237 
L 231.394659 -16.321206 
L 231.436324 -21.166175 
L 231.467124 -26.011143 
L 231.489565 -30.856112 
L 231.505729 -35.701081 
L 231.517289 -40.546049 
L 231.525546 -45.391018 
L 231.531473 -50.235986 
L 231.535765 -55.080955 
L 231.538896 -59.925924 
L 231.54117 -64.770892 
L 231.542766 -69.615861 
L 231.543773 -74.46083 
L 231.544217 -79.305798 
L 231.544084 -84.150767 
L 231.543335 -88.995736 
L 231.541932 -93.840704 
L 231.539851 -98.685673 
L 231.537109 -103.530642 
L 231.533778 -108.37561 
L 231.530001 -113.220579 
L 231.526001 -118.065548 
L 231.522077 -122.910516 
L 231.518591 -127.755485 
L 231.515934 -132.600454 
L 231.51448 -137.445422 
L 231.514529 -142.290391 
L 231.516246 -147.13536 
L 231.519618 -151.980328 
L 231.524436 -156.825297 
L 231.530323 -161.670265 
L 231.536787 -166.515234 
L 231.543306 -171.360203 
L 231.549415 -176.205171 
L 231.554765 -181.05014 
L 231.559164 -185.895109 
L 231.562567 -190.740077 
L 231.565048 -195.585046 
L 231.566756 -200.430015 
L 231.567866 -205.274983 
L 231.570884 -205.274983 
L 231.570884 -205.274983 
L 231.571994 -200.430015 
L 231.573702 -195.585046 
L 231.576183 -190.740077 
L 231.579586 -185.895109 
L 231.583985 -181.05014 
L 231.589335 -176.205171 
L 231.595444 -171.360203 
L 231.601963 -166.515234 
L 231.608427 -161.670265 
L 231.614314 -156.825297 
L 231.619132 -151.980328 
L 231.622504 -147.13536 
L 231.624221 -142.290391 
L 231.62427 -137.445422 
L 231.622816 -132.600454 
L 231.620159 -127.755485 
L 231.616673 -122.910516 
L 231.612749 -118.065548 
L 231.608749 -113.220579 
L 231.604972 -108.37561 
L 231.601641 -103.530642 
L 231.598899 -98.685673 
L 231.596818 -93.840704 
L 231.595415 -88.995736 
L 231.594666 -84.150767 
L 231.594533 -79.305798 
L 231.594977 -74.46083 
L 231.595984 -69.615861 
L 231.59758 -64.770892 
L 231.599854 -59.925924 
L 231.602985 -55.080955 
L 231.607277 -50.235986 
L 231.613204 -45.391018 
L 231.621461 -40.546049 
L 231.633021 -35.701081 
L 231.649185 -30.856112 
L 231.671626 -26.011143 
L 231.702426 -21.166175 
L 231.744091 -16.321206 
L 231.799559 -11.476237 
L 231.872185 -6.631269 
L 231.965693 -1.7863 
L 232.084073 3.058669 
L 232.231411 7.903637 
L 232.411632 12.748606 
L 232.628184 17.593575 
L 232.883705 22.438543 
L 233.179753 27.283512 
L 233.516682 32.128481 
L 233.893734 36.973449 
L 234.309371 41.818418 
L 234.761799 46.663387 
L 235.249566 51.508355 
L 235.772074 56.353324 
L 236.329866 61.198293 
L 236.924579 66.043261 
L 237.558594 70.88823 
L 238.234469 75.733198 
L 238.954327 80.578167 
L 239.719326 85.423136 
L 240.529275 90.268104 
L 241.382345 95.113073 
L 242.274794 99.958042 
L 243.200637 104.80301 
L 244.151308 109.647979 
L 245.115474 114.492948 
L 246.079238 119.337916 
L 247.026888 124.182885 
L 247.942206 129.027854 
L 248.810086 133.872822 
L 249.618041 138.717791 
L 250.357134 143.56276 
L 251.022016 148.407728 
L 251.610017 153.252697 
L 252.119572 158.097666 
L 252.548452 162.942634 
L 252.892367 167.787603 
L 253.144376 172.632572 
L 253.2953 177.47754 
L 253.335032 182.322509 
L 253.254224 187.167477 
L 253.045565 192.012446 
L 252.703752 196.857415 
L 252.223671 201.702383 
L 251.59721 206.547352 
L 250.81031 211.392321 
L 249.842674 216.237289 
L 248.672173 221.082258 
L 247.284201 225.927227 
L 245.683558 230.772195 
L 243.904266 235.617164 
L 242.012489 240.462133 
L 240.099877 245.307101 
L 238.268459 250.15207 
L 236.611707 254.997039 
L 235.197879 259.842007 
L 234.060595 264.686976 
L 233.198551 269.531945 
L 232.582873 274.376913 
z
" clip-path="url(#pd5ed6b5049)" style="fill: #db96c0; stroke: #595959; stroke-width: 0.5"/>
   </g>
   <g id="PolyCollection_5">
    <path d="M 288.389534 274.375365 
L 286.349216 274.375365 
L 285.723176 269.477936 
L 284.844799 264.580507 
L 283.684898 259.683077 
L 282.243302 254.785648 
L 280.55641 249.888219 
L 278.696519 244.99079 
L 276.761488 240.09336 
L 274.85691 235.195931 
L 273.076217 230.298502 
L 271.485226 225.401073 
L 270.115878 220.503643 
L 268.970027 215.606214 
L 268.030205 210.708785 
L 267.27212 205.811355 
L 266.674164 200.913926 
L 266.221598 196.016497 
L 265.905939 191.119068 
L 265.72178 186.221638 
L 265.663555 181.324209 
L 265.723803 176.42678 
L 265.893259 171.529351 
L 266.16219 166.631921 
L 266.522055 161.734492 
L 266.966678 156.837063 
L 267.49249 151.939634 
L 268.097753 147.042204 
L 268.781031 142.144775 
L 269.539388 137.247346 
L 270.366878 132.349917 
L 271.253768 127.452487 
L 272.186742 122.555058 
L 273.149958 117.657629 
L 274.126622 112.7602 
L 275.1006 107.86277 
L 276.057705 102.965341 
L 276.986443 98.067912 
L 277.878252 93.170483 
L 278.727396 88.273053 
L 279.530675 83.375624 
L 280.287079 78.478195 
L 280.997377 73.580765 
L 281.663621 68.683336 
L 282.288539 63.785907 
L 282.874854 58.888478 
L 283.424639 53.991048 
L 283.938872 49.093619 
L 284.417281 44.19619 
L 284.858529 39.298761 
L 285.260685 34.401331 
L 285.621832 29.503902 
L 285.940673 24.606473 
L 286.216981 19.709044 
L 286.451825 14.811614 
L 286.647541 9.914185 
L 286.807512 5.016756 
L 286.935826 0.119327 
L 287.036908 -4.778103 
L 287.115189 -9.675532 
L 287.17486 -14.572961 
L 287.219702 -19.47039 
L 287.253006 -24.36782 
L 287.277535 -29.265249 
L 287.295533 -34.162678 
L 287.308759 -39.060108 
L 287.318538 -43.957537 
L 287.325828 -48.854966 
L 287.331296 -53.752395 
L 287.33539 -58.649825 
L 287.338401 -63.547254 
L 287.340511 -68.444683 
L 287.341831 -73.342112 
L 287.34242 -78.239542 
L 287.342298 -83.136971 
L 287.341465 -88.0344 
L 287.339912 -92.931829 
L 287.337642 -97.829259 
L 287.334692 -102.726688 
L 287.331158 -107.624117 
L 287.32721 -112.521546 
L 287.323103 -117.418976 
L 287.319172 -122.316405 
L 287.315807 -127.213834 
L 287.313412 -132.111263 
L 287.312353 -137.008693 
L 287.312895 -141.906122 
L 287.31515 -146.803551 
L 287.319044 -151.70098 
L 287.324314 -156.59841 
L 287.330542 -161.495839 
L 287.337222 -166.393268 
L 287.343839 -171.290698 
L 287.349951 -176.188127 
L 287.355243 -181.085556 
L 287.359551 -185.982985 
L 287.362857 -190.880415 
L 287.36525 -195.777844 
L 287.366888 -200.675273 
L 287.367947 -205.572702 
L 287.368594 -210.470132 
L 287.370156 -210.470132 
L 287.370156 -210.470132 
L 287.370803 -205.572702 
L 287.371862 -200.675273 
L 287.3735 -195.777844 
L 287.375893 -190.880415 
L 287.379199 -185.982985 
L 287.383507 -181.085556 
L 287.388799 -176.188127 
L 287.394911 -171.290698 
L 287.401528 -166.393268 
L 287.408208 -161.495839 
L 287.414436 -156.59841 
L 287.419706 -151.70098 
L 287.4236 -146.803551 
L 287.425855 -141.906122 
L 287.426397 -137.008693 
L 287.425338 -132.111263 
L 287.422943 -127.213834 
L 287.419578 -122.316405 
L 287.415647 -117.418976 
L 287.41154 -112.521546 
L 287.407592 -107.624117 
L 287.404058 -102.726688 
L 287.401108 -97.829259 
L 287.398838 -92.931829 
L 287.397285 -88.0344 
L 287.396452 -83.136971 
L 287.39633 -78.239542 
L 287.396919 -73.342112 
L 287.398239 -68.444683 
L 287.400349 -63.547254 
L 287.40336 -58.649825 
L 287.407454 -53.752395 
L 287.412922 -48.854966 
L 287.420212 -43.957537 
L 287.429991 -39.060108 
L 287.443217 -34.162678 
L 287.461215 -29.265249 
L 287.485744 -24.36782 
L 287.519048 -19.47039 
L 287.56389 -14.572961 
L 287.623561 -9.675532 
L 287.701842 -4.778103 
L 287.802924 0.119327 
L 287.931238 5.016756 
L 288.091209 9.914185 
L 288.286925 14.811614 
L 288.521769 19.709044 
L 288.798077 24.606473 
L 289.116918 29.503902 
L 289.478065 34.401331 
L 289.880221 39.298761 
L 290.321469 44.19619 
L 290.799878 49.093619 
L 291.314111 53.991048 
L 291.863896 58.888478 
L 292.450211 63.785907 
L 293.075129 68.683336 
L 293.741373 73.580765 
L 294.451671 78.478195 
L 295.208075 83.375624 
L 296.011354 88.273053 
L 296.860498 93.170483 
L 297.752307 98.067912 
L 298.681045 102.965341 
L 299.63815 107.86277 
L 300.612128 112.7602 
L 301.588792 117.657629 
L 302.552008 122.555058 
L 303.484982 127.452487 
L 304.371872 132.349917 
L 305.199362 137.247346 
L 305.957719 142.144775 
L 306.640997 147.042204 
L 307.24626 151.939634 
L 307.772072 156.837063 
L 308.216695 161.734492 
L 308.57656 166.631921 
L 308.845491 171.529351 
L 309.014947 176.42678 
L 309.075195 181.324209 
L 309.01697 186.221638 
L 308.832811 191.119068 
L 308.517152 196.016497 
L 308.064586 200.913926 
L 307.46663 205.811355 
L 306.708545 210.708785 
L 305.768723 215.606214 
L 304.622872 220.503643 
L 303.253524 225.401073 
L 301.662533 230.298502 
L 299.88184 235.195931 
L 297.977262 240.09336 
L 296.042231 244.99079 
L 294.18234 249.888219 
L 292.495448 254.785648 
L 291.053852 259.683077 
L 289.893951 264.580507 
L 289.015574 269.477936 
L 288.389534 274.375365 
z
" clip-path="url(#pd5ed6b5049)" style="fill: #a2c865; stroke: #595959; stroke-width: 0.5"/>
   </g>
   <g id="matplotlib.axis_1">
    <g id="xtick_1">
     <g id="line2d_1">
      <defs>
       <path id="mcf191a1227" d="M 0 0 
L 0 3.5 
" style="stroke: #000000; stroke-width: 0.8"/>
      </defs>
      <g>
       <use xlink:href="#mcf191a1227" x="64.169375" y="233.266875" style="stroke: #000000; stroke-width: 0.8"/>
      </g>
     </g>
     <g id="text_1">
      <!-- 10$^2$ -->
      <g transform="translate(54.569375 248.948125)">
       <text>
        <tspan style="font: 12px 'Helvetica'" x="0 6.673828" y="-0.171875">10</tspan>
        <tspan style="font: 8.4px 'DejaVu Sans'" x="13.4625" y="-4.765625">2</tspan>
       </text>
      </g>
     </g>
    </g>
    <g id="xtick_2">
     <g id="line2d_2">
      <g>
       <use xlink:href="#mcf191a1227" x="119.969375" y="233.266875" style="stroke: #000000; stroke-width: 0.8"/>
      </g>
     </g>
     <g id="text_2">
      <!-- 10$^3$ -->
      <g transform="translate(110.369375 248.948125)">
       <text>
        <tspan style="font: 12px 'Helvetica'" x="0 6.673828" y="-0.171875">10</tspan>
        <tspan style="font: 8.4px 'DejaVu Sans'" x="13.4625" y="-4.765625">3</tspan>
       </text>
      </g>
     </g>
    </g>
    <g id="xtick_3">
     <g id="line2d_3">
      <g>
       <use xlink:href="#mcf191a1227" x="175.769375" y="233.266875" style="stroke: #000000; stroke-width: 0.8"/>
      </g>
     </g>
     <g id="text_3">
      <!-- 10$^4$ -->
      <g transform="translate(166.169375 248.880625)">
       <text>
        <tspan style="font: 12px 'Helvetica'" x="0 6.673828" y="-0.28125">10</tspan>
        <tspan style="font: 8.4px 'DejaVu Sans'" x="13.4625" y="-4.875">4</tspan>
       </text>
      </g>
     </g>
    </g>
    <g id="xtick_4">
     <g id="line2d_4">
      <g>
       <use xlink:href="#mcf191a1227" x="231.569375" y="233.266875" style="stroke: #000000; stroke-width: 0.8"/>
      </g>
     </g>
     <g id="text_4">
      <!-- 10$^5$ -->
      <g transform="translate(221.969375 248.880625)">
       <text>
        <tspan style="font: 12px 'Helvetica'" x="0 6.673828" y="-0.28125">10</tspan>
        <tspan style="font: 8.4px 'DejaVu Sans'" x="13.4625" y="-4.875">5</tspan>
       </text>
      </g>
     </g>
    </g>
    <g id="xtick_5">
     <g id="line2d_5">
      <g>
       <use xlink:href="#mcf191a1227" x="287.369375" y="233.266875" style="stroke: #000000; stroke-width: 0.8"/>
      </g>
     </g>
     <g id="text_5">
      <!-- 10$^6$ -->
      <g transform="translate(277.769375 248.948125)">
       <text>
        <tspan style="font: 12px 'Helvetica'" x="0 6.673828" y="-0.171875">10</tspan>
        <tspan style="font: 8.4px 'DejaVu Sans'" x="13.4625" y="-4.765625">6</tspan>
       </text>
      </g>
     </g>
    </g>
    <g id="text_6">
     <text style="font: 12px 'Helvetica', sans-serif; text-anchor: middle" x="175.769375" y="264.275" transform="rotate(-0 175.769375 264.275)">Spectral library size</text>
    </g>
   </g>
   <g id="matplotlib.axis_2">
    <g id="ytick_1">
     <g id="line2d_6">
      <defs>
       <path id="m5a4fef031d" d="M 0 0 
L -3.5 0 
" style="stroke: #000000; stroke-width: 0.8"/>
      </defs>
      <g>
       <use xlink:href="#m5a4fef031d" x="36.269375" y="233.266875" style="stroke: #000000; stroke-width: 0.8"/>
      </g>
     </g>
     <g id="text_7">
      <text style="font: 12px 'Helvetica', sans-serif; text-anchor: end" x="29.269375" y="237.57375" transform="rotate(-0 29.269375 237.57375)">0</text>
     </g>
    </g>
    <g id="ytick_2">
     <g id="line2d_7">
      <g>
       <use xlink:href="#m5a4fef031d" x="36.269375" y="188.914875" style="stroke: #000000; stroke-width: 0.8"/>
      </g>
     </g>
     <g id="text_8">
      <text style="font: 12px 'Helvetica', sans-serif; text-anchor: end" x="29.269375" y="193.22175" transform="rotate(-0 29.269375 193.22175)">1</text>
     </g>
    </g>
    <g id="ytick_3">
     <g id="line2d_8">
      <g>
       <use xlink:href="#m5a4fef031d" x="36.269375" y="144.562875" style="stroke: #000000; stroke-width: 0.8"/>
      </g>
     </g>
     <g id="text_9">
      <text style="font: 12px 'Helvetica', sans-serif; text-anchor: end" x="29.269375" y="148.86975" transform="rotate(-0 29.269375 148.86975)">2</text>
     </g>
    </g>
    <g id="ytick_4">
     <g id="line2d_9">
      <g>
       <use xlink:href="#m5a4fef031d" x="36.269375" y="100.210875" style="stroke: #000000; stroke-width: 0.8"/>
      </g>
     </g>
     <g id="text_10">
      <text style="font: 12px 'Helvetica', sans-serif; text-anchor: end" x="29.269375" y="104.51775" transform="rotate(-0 29.269375 104.51775)">3</text>
     </g>
    </g>
    <g id="ytick_5">
     <g id="line2d_10">
      <g>
       <use xlink:href="#m5a4fef031d" x="36.269375" y="55.858875" style="stroke: #000000; stroke-width: 0.8"/>
      </g>
     </g>
     <g id="text_11">
      <text style="font: 12px 'Helvetica', sans-serif; text-anchor: end" x="29.269375" y="60.16575" transform="rotate(-0 29.269375 60.16575)">4</text>
     </g>
    </g>
    <g id="ytick_6">
     <g id="line2d_11">
      <g>
       <use xlink:href="#m5a4fef031d" x="36.269375" y="11.506875" style="stroke: #000000; stroke-width: 0.8"/>
      </g>
     </g>
     <g id="text_12">
      <text style="font: 12px 'Helvetica', sans-serif; text-anchor: end" x="29.269375" y="15.81375" transform="rotate(-0 29.269375 15.81375)">5</text>
     </g>
    </g>
    <g id="text_13">
     <text style="font: 12px 'Helvetica', sans-serif; text-anchor: middle" x="16.048125" y="122.386875" transform="rotate(-90 16.048125 122.386875)">Spectral entropy distribution</text>
    </g>
   </g>
   <g id="line2d_12">
    <path d="M 43.2955 203.318824 
L 85.04325 203.318824 
" clip-path="url(#pd5ed6b5049)" style="fill: none; stroke-dasharray: 0.375,0.375; stroke-dashoffset: 0; stroke: #595959; stroke-width: 0.5"/>
   </g>
   <g id="line2d_13">
    <path d="M 42.891941 169.972355 
L 85.446809 169.972355 
" clip-path="url(#pd5ed6b5049)" style="fill: none; stroke-dasharray: 0.75,0.75; stroke-dashoffset: 0; stroke: #595959; stroke-width: 0.5"/>
   </g>
   <g id="line2d_14">
    <path d="M 48.687358 126.411459 
L 79.651392 126.411459 
" clip-path="url(#pd5ed6b5049)" style="fill: none; stroke-dasharray: 0.375,0.375; stroke-dashoffset: 0; stroke: #595959; stroke-width: 0.5"/>
   </g>
   <g id="line2d_15">
    <path d="M 100.205215 203.564849 
L 139.733535 203.564849 
" clip-path="url(#pd5ed6b5049)" style="fill: none; stroke-dasharray: 0.375,0.375; stroke-dashoffset: 0; stroke: #595959; stroke-width: 0.5"/>
   </g>
   <g id="line2d_16">
    <path d="M 99.193883 166.310331 
L 140.744867 166.310331 
" clip-path="url(#pd5ed6b5049)" style="fill: none; stroke-dasharray: 0.75,0.75; stroke-dashoffset: 0; stroke: #595959; stroke-width: 0.5"/>
   </g>
   <g id="line2d_17">
    <path d="M 103.095043 130.435233 
L 136.843707 130.435233 
" clip-path="url(#pd5ed6b5049)" style="fill: none; stroke-dasharray: 0.375,0.375; stroke-dashoffset: 0; stroke: #595959; stroke-width: 0.5"/>
   </g>
   <g id="line2d_18">
    <path d="M 155.536663 202.743622 
L 196.002087 202.743622 
" clip-path="url(#pd5ed6b5049)" style="fill: none; stroke-dasharray: 0.375,0.375; stroke-dashoffset: 0; stroke: #595959; stroke-width: 0.5"/>
   </g>
   <g id="line2d_19">
    <path d="M 154.914424 167.607832 
L 196.624326 167.607832 
" clip-path="url(#pd5ed6b5049)" style="fill: none; stroke-dasharray: 0.75,0.75; stroke-dashoffset: 0; stroke: #595959; stroke-width: 0.5"/>
   </g>
   <g id="line2d_20">
    <path d="M 159.602949 128.469691 
L 191.935801 128.469691 
" clip-path="url(#pd5ed6b5049)" style="fill: none; stroke-dasharray: 0.375,0.375; stroke-dashoffset: 0; stroke: #595959; stroke-width: 0.5"/>
   </g>
   <g id="line2d_21">
    <path d="M 211.121622 202.643517 
L 252.017128 202.643517 
" clip-path="url(#pd5ed6b5049)" style="fill: none; stroke-dasharray: 0.375,0.375; stroke-dashoffset: 0; stroke: #595959; stroke-width: 0.5"/>
   </g>
   <g id="line2d_22">
    <path d="M 210.459612 167.830499 
L 252.679138 167.830499 
" clip-path="url(#pd5ed6b5049)" style="fill: none; stroke-dasharray: 0.75,0.75; stroke-dashoffset: 0; stroke: #595959; stroke-width: 0.5"/>
   </g>
   <g id="line2d_23">
    <path d="M 215.360272 128.924773 
L 247.778478 128.924773 
" clip-path="url(#pd5ed6b5049)" style="fill: none; stroke-dasharray: 0.375,0.375; stroke-dashoffset: 0; stroke: #595959; stroke-width: 0.5"/>
   </g>
   <g id="line2d_24">
    <path d="M 266.881116 202.668854 
L 307.857634 202.668854 
" clip-path="url(#pd5ed6b5049)" style="fill: none; stroke-dasharray: 0.375,0.375; stroke-dashoffset: 0; stroke: #595959; stroke-width: 0.5"/>
   </g>
   <g id="line2d_25">
    <path d="M 266.374262 167.699784 
L 308.364488 167.699784 
" clip-path="url(#pd5ed6b5049)" style="fill: none; stroke-dasharray: 0.75,0.75; stroke-dashoffset: 0; stroke: #595959; stroke-width: 0.5"/>
   </g>
   <g id="line2d_26">
    <path d="M 271.414924 128.816434 
L 303.323826 128.816434 
" clip-path="url(#pd5ed6b5049)" style="fill: none; stroke-dasharray: 0.375,0.375; stroke-dashoffset: 0; stroke: #595959; stroke-width: 0.5"/>
   </g>
   <g id="patch_3">
    <path d="M 36.269375 233.266875 
L 36.269375 11.506875 
" style="fill: none; stroke: #000000; stroke-width: 0.8; stroke-linejoin: miter; stroke-linecap: square"/>
   </g>
   <g id="patch_4">
    <path d="M 315.269375 233.266875 
L 315.269375 11.506875 
" style="fill: none; stroke: #000000; stroke-width: 0.8; stroke-linejoin: miter; stroke-linecap: square"/>
   </g>
   <g id="patch_5">
    <path d="M 36.269375 233.266875 
L 315.269375 233.266875 
" style="fill: none; stroke: #000000; stroke-width: 0.8; stroke-linejoin: miter; stroke-linecap: square"/>
   </g>
   <g id="patch_6">
    <path d="M 36.269375 11.506875 
L 315.269375 11.506875 
" style="fill: none; stroke: #000000; stroke-width: 0.8; stroke-linejoin: miter; stroke-linecap: square"/>
   </g>
  </g>
 </g>
 <defs>
  <clipPath id="pd5ed6b5049">
   <rect x="36.269375" y="11.506875" width="279" height="221.76"/>
  </clipPath>
 </defs>
</svg>
