<?xml version="1.0" encoding="utf-8" standalone="no"?>
<!DOCTYPE svg PUBLIC "-//W3C//DTD SVG 1.1//EN"
  "http://www.w3.org/Graphics/SVG/1.1/DTD/svg11.dtd">
<svg xmlns:xlink="http://www.w3.org/1999/xlink" width="322.469375pt" height="274.023125pt" viewBox="0 0 322.469375 274.023125" xmlns="http://www.w3.org/2000/svg" version="1.1">
 <metadata>
  <rdf:RDF xmlns:dc="http://purl.org/dc/elements/1.1/" xmlns:cc="http://creativecommons.org/ns#" xmlns:rdf="http://www.w3.org/1999/02/22-rdf-syntax-ns#">
   <cc:Work>
    <dc:type rdf:resource="http://purl.org/dc/dcmitype/StillImage"/>
    <dc:date>2023-03-13T19:44:20.858549</dc:date>
    <dc:format>image/svg+xml</dc:format>
    <dc:creator>
     <cc:Agent>
      <dc:title>Matplotlib v3.6.2, https://matplotlib.org/</dc:title>
     </cc:Agent>
    </dc:creator>
   </cc:Work>
  </rdf:RDF>
 </metadata>
 <defs>
  <style type="text/css">*{stroke-linejoin: round; stroke-linecap: butt}</style>
 </defs>
 <g id="figure_1">
  <g id="patch_1">
   <path d="M 0 274.023125 
L 322.469375 274.023125 
L 322.469375 0 
L 0 0 
z
" style="fill: #ffffff"/>
  </g>
  <g id="axes_1">
   <g id="patch_2">
    <path d="M 36.269375 233.266875 
L 315.269375 233.266875 
L 315.269375 11.506875 
L 36.269375 11.506875 
z
" style="fill: #ffffff"/>
   </g>
   <g id="PolyCollection_1">
    <path d="M 64.585283 272.486585 
L 63.753467 272.486585 
L 63.573603 269.114583 
L 63.337645 265.742582 
L 63.037019 262.37058 
L 62.664834 258.998579 
L 62.216765 255.626577 
L 61.691736 252.254576 
L 61.092281 248.882574 
L 60.424496 245.510573 
L 59.697606 242.138571 
L 58.923237 238.76657 
L 58.11457 235.394568 
L 57.285526 232.022567 
L 56.450104 228.650565 
L 55.621889 225.278564 
L 54.813645 221.906562 
L 54.036842 218.534561 
L 53.30097 215.162559 
L 52.612602 211.790558 
L 51.974285 208.418556 
L 51.383509 205.046555 
L 50.832101 201.674553 
L 50.306376 198.302552 
L 49.788267 194.93055 
L 49.257457 191.558549 
L 48.694279 188.186547 
L 48.082974 184.814545 
L 47.41476 181.442544 
L 46.69019 178.070542 
L 45.920398 174.698541 
L 45.127003 171.326539 
L 44.34068 167.954538 
L 43.598603 164.582536 
L 42.941097 161.210535 
L 42.407921 157.838533 
L 42.034625 154.466532 
L 41.849375 151.09453 
L 41.870572 147.722529 
L 42.10548 144.350527 
L 42.549959 140.978526 
L 43.189275 137.606524 
L 43.999814 134.234523 
L 44.951466 130.862521 
L 46.010334 127.49052 
L 47.141441 124.118518 
L 48.311136 120.746517 
L 49.488959 117.374515 
L 50.648854 114.002514 
L 51.769714 110.630512 
L 52.835345 107.258511 
L 53.834019 103.886509 
L 54.757787 100.514508 
L 55.601767 97.142506 
L 56.363542 93.770505 
L 57.042761 90.398503 
L 57.640963 87.026502 
L 58.16158 83.6545 
L 58.610001 80.282499 
L 58.993596 76.910497 
L 59.321569 73.538496 
L 59.604588 70.166494 
L 59.854178 66.794493 
L 60.08193 63.422491 
L 60.298627 60.050489 
L 60.513426 56.678488 
L 60.733194 53.306486 
L 60.96209 49.934485 
L 61.201435 46.562483 
L 61.449857 43.190482 
L 61.703669 39.81848 
L 61.95743 36.446479 
L 62.204604 33.074477 
L 62.438281 29.702476 
L 62.651888 26.330474 
L 62.839851 22.958473 
L 62.998152 19.586471 
L 63.124743 16.21447 
L 63.219762 12.842468 
L 63.285538 9.470467 
L 63.326358 6.098465 
L 63.348023 2.726464 
L 63.357243 -0.645538 
L 63.36094 -4.017539 
L 63.365555 -7.389541 
L 63.376434 -10.761542 
L 63.39739 -14.133544 
L 63.430466 -17.505545 
L 63.475938 -20.877547 
L 63.532514 -24.249548 
L 63.597701 -27.62155 
L 63.668259 -30.993551 
L 63.740683 -34.365553 
L 63.811628 -37.737554 
L 63.878248 -41.109556 
L 63.938413 -44.481557 
L 63.99079 -47.853559 
L 64.034821 -51.22556 
L 64.070609 -54.597562 
L 64.098763 -57.969563 
L 64.120213 -61.341565 
L 64.218537 -61.341565 
L 64.218537 -61.341565 
L 64.239987 -57.969563 
L 64.268141 -54.597562 
L 64.303929 -51.22556 
L 64.34796 -47.853559 
L 64.400337 -44.481557 
L 64.460502 -41.109556 
L 64.527122 -37.737554 
L 64.598067 -34.365553 
L 64.670491 -30.993551 
L 64.741049 -27.62155 
L 64.806236 -24.249548 
L 64.862812 -20.877547 
L 64.908284 -17.505545 
L 64.94136 -14.133544 
L 64.962316 -10.761542 
L 64.973195 -7.389541 
L 64.97781 -4.017539 
L 64.981507 -0.645538 
L 64.990727 2.726464 
L 65.012392 6.098465 
L 65.053212 9.470467 
L 65.118988 12.842468 
L 65.214007 16.21447 
L 65.340598 19.586471 
L 65.498899 22.958473 
L 65.686862 26.330474 
L 65.900469 29.702476 
L 66.134146 33.074477 
L 66.38132 36.446479 
L 66.635081 39.81848 
L 66.888893 43.190482 
L 67.137315 46.562483 
L 67.37666 49.934485 
L 67.605556 53.306486 
L 67.825324 56.678488 
L 68.040123 60.050489 
L 68.25682 63.422491 
L 68.484572 66.794493 
L 68.734162 70.166494 
L 69.017181 73.538496 
L 69.345154 76.910497 
L 69.728749 80.282499 
L 70.17717 83.6545 
L 70.697787 87.026502 
L 71.295989 90.398503 
L 71.975208 93.770505 
L 72.736983 97.142506 
L 73.580963 100.514508 
L 74.504731 103.886509 
L 75.503405 107.258511 
L 76.569036 110.630512 
L 77.689896 114.002514 
L 78.849791 117.374515 
L 80.027614 120.746517 
L 81.197309 124.118518 
L 82.328416 127.49052 
L 83.387284 130.862521 
L 84.338936 134.234523 
L 85.149475 137.606524 
L 85.788791 140.978526 
L 86.23327 144.350527 
L 86.468178 147.722529 
L 86.489375 151.09453 
L 86.304125 154.466532 
L 85.930829 157.838533 
L 85.397653 161.210535 
L 84.740147 164.582536 
L 83.99807 167.954538 
L 83.211747 171.326539 
L 82.418352 174.698541 
L 81.64856 178.070542 
L 80.92399 181.442544 
L 80.255776 184.814545 
L 79.644471 188.186547 
L 79.081293 191.558549 
L 78.550483 194.93055 
L 78.032374 198.302552 
L 77.506649 201.674553 
L 76.955241 205.046555 
L 76.364465 208.418556 
L 75.726148 211.790558 
L 75.03778 215.162559 
L 74.301908 218.534561 
L 73.525105 221.906562 
L 72.716861 225.278564 
L 71.888646 228.650565 
L 71.053224 232.022567 
L 70.22418 235.394568 
L 69.415513 238.76657 
L 68.641144 242.138571 
L 67.914254 245.510573 
L 67.246469 248.882574 
L 66.647014 252.254576 
L 66.121985 255.626577 
L 65.673916 258.998579 
L 65.301731 262.37058 
L 65.001105 265.742582 
L 64.765147 269.114583 
L 64.585283 272.486585 
z
" clip-path="url(#p763f11fb9a)" style="fill: #72b6a1; stroke: #595959; stroke-width: 0.5"/>
   </g>
   <g id="PolyCollection_2">
    <path d="M 120.293476 272.091033 
L 119.645274 272.091033 
L 119.499121 268.681604 
L 119.304787 265.272176 
L 119.053934 261.862748 
L 118.739395 258.45332 
L 118.356013 255.043892 
L 117.901361 251.634464 
L 117.376203 248.225036 
L 116.784603 244.815608 
L 116.133649 241.40618 
L 115.432831 237.996752 
L 114.693192 234.587323 
L 113.926385 231.177895 
L 113.143806 227.768467 
L 112.355872 224.359039 
L 111.571531 220.949611 
L 110.797951 217.540183 
L 110.040372 214.130755 
L 109.30205 210.721327 
L 108.584281 207.311899 
L 107.886503 203.902471 
L 107.206531 200.493042 
L 106.540965 197.083614 
L 105.885794 193.674186 
L 105.237182 190.264758 
L 104.592362 186.85533 
L 103.95054 183.445902 
L 103.313654 180.036474 
L 102.686884 176.627046 
L 102.078791 173.217618 
L 101.501041 169.80819 
L 100.967715 166.398761 
L 100.494271 162.989333 
L 100.096301 159.579905 
L 99.788223 156.170477 
L 99.582119 152.761049 
L 99.48686 149.351621 
L 99.507625 145.942193 
L 99.64585 142.532765 
L 99.899539 139.123337 
L 100.263814 135.713909 
L 100.731557 132.30448 
L 101.293986 128.895052 
L 101.941071 125.485624 
L 102.661764 122.076196 
L 103.44408 118.666768 
L 104.275137 115.25734 
L 105.141239 111.847912 
L 106.028109 108.438484 
L 106.921303 105.029056 
L 107.806779 101.619628 
L 108.671569 98.210199 
L 109.504436 94.800771 
L 110.296426 91.391343 
L 111.041227 87.981915 
L 111.735286 84.572487 
L 112.377678 81.163059 
L 112.969751 77.753631 
L 113.514601 74.344203 
L 114.016459 70.934775 
L 114.480049 67.525347 
L 114.910014 64.115918 
L 115.310456 60.70649 
L 115.684644 57.297062 
L 116.034903 53.887634 
L 116.362675 50.478206 
L 116.66873 47.068778 
L 116.953446 43.65935 
L 117.217115 40.249922 
L 117.460203 36.840494 
L 117.683515 33.431066 
L 117.888251 30.021637 
L 118.075949 26.612209 
L 118.248351 23.202781 
L 118.407226 19.793353 
L 118.554205 16.383925 
L 118.690645 12.974497 
L 118.817568 9.565069 
L 118.935663 6.155641 
L 119.045339 2.746213 
L 119.146823 -0.663215 
L 119.24027 -4.072644 
L 119.325857 -7.482072 
L 119.403849 -10.8915 
L 119.474633 -14.300928 
L 119.538701 -17.710356 
L 119.596618 -21.119784 
L 119.648955 -24.529212 
L 119.696234 -27.93864 
L 119.738883 -31.348068 
L 119.777212 -34.757496 
L 119.811419 -38.166925 
L 119.841627 -41.576353 
L 119.86792 -44.985781 
L 119.890397 -48.395209 
L 119.909211 -51.804637 
L 119.924589 -55.214065 
L 119.936838 -58.623493 
L 119.94633 -62.032921 
L 119.953476 -65.442349 
L 119.985274 -65.442349 
L 119.985274 -65.442349 
L 119.99242 -62.032921 
L 120.001912 -58.623493 
L 120.014161 -55.214065 
L 120.029539 -51.804637 
L 120.048353 -48.395209 
L 120.07083 -44.985781 
L 120.097123 -41.576353 
L 120.127331 -38.166925 
L 120.161538 -34.757496 
L 120.199867 -31.348068 
L 120.242516 -27.93864 
L 120.289795 -24.529212 
L 120.342132 -21.119784 
L 120.400049 -17.710356 
L 120.464117 -14.300928 
L 120.534901 -10.8915 
L 120.612893 -7.482072 
L 120.69848 -4.072644 
L 120.791927 -0.663215 
L 120.893411 2.746213 
L 121.003087 6.155641 
L 121.121182 9.565069 
L 121.248105 12.974497 
L 121.384545 16.383925 
L 121.531524 19.793353 
L 121.690399 23.202781 
L 121.862801 26.612209 
L 122.050499 30.021637 
L 122.255235 33.431066 
L 122.478547 36.840494 
L 122.721635 40.249922 
L 122.985304 43.65935 
L 123.27002 47.068778 
L 123.576075 50.478206 
L 123.903847 53.887634 
L 124.254106 57.297062 
L 124.628294 60.70649 
L 125.028736 64.115918 
L 125.458701 67.525347 
L 125.922291 70.934775 
L 126.424149 74.344203 
L 126.968999 77.753631 
L 127.561072 81.163059 
L 128.203464 84.572487 
L 128.897523 87.981915 
L 129.642324 91.391343 
L 130.434314 94.800771 
L 131.267181 98.210199 
L 132.131971 101.619628 
L 133.017447 105.029056 
L 133.910641 108.438484 
L 134.797511 111.847912 
L 135.663613 115.25734 
L 136.49467 118.666768 
L 137.276986 122.076196 
L 137.997679 125.485624 
L 138.644764 128.895052 
L 139.207193 132.30448 
L 139.674936 135.713909 
L 140.039211 139.123337 
L 140.2929 142.532765 
L 140.431125 145.942193 
L 140.45189 149.351621 
L 140.356631 152.761049 
L 140.150527 156.170477 
L 139.842449 159.579905 
L 139.444479 162.989333 
L 138.971035 166.398761 
L 138.437709 169.80819 
L 137.859959 173.217618 
L 137.251866 176.627046 
L 136.625096 180.036474 
L 135.98821 183.445902 
L 135.346388 186.85533 
L 134.701568 190.264758 
L 134.052956 193.674186 
L 133.397785 197.083614 
L 132.732219 200.493042 
L 132.052247 203.902471 
L 131.354469 207.311899 
L 130.6367 210.721327 
L 129.898378 214.130755 
L 129.140799 217.540183 
L 128.367219 220.949611 
L 127.582878 224.359039 
L 126.794944 227.768467 
L 126.012365 231.177895 
L 125.245558 234.587323 
L 124.505919 237.996752 
L 123.805101 241.40618 
L 123.154147 244.815608 
L 122.562547 248.225036 
L 122.037389 251.634464 
L 121.582737 255.043892 
L 121.199355 258.45332 
L 120.884816 261.862748 
L 120.633963 265.272176 
L 120.439629 268.681604 
L 120.293476 272.091033 
z
" clip-path="url(#p763f11fb9a)" style="fill: #e99675; stroke: #595959; stroke-width: 0.5"/>
   </g>
   <g id="PolyCollection_3">
    <path d="M 176.137051 272.310729 
L 175.401699 272.310729 
L 175.217283 268.498301 
L 174.9675 264.685872 
L 174.641828 260.873444 
L 174.232806 257.061015 
L 173.737492 253.248587 
L 173.158368 249.436158 
L 172.503405 245.62373 
L 171.785156 241.811301 
L 171.019022 237.998873 
L 170.221056 234.186444 
L 169.405835 230.374016 
L 168.584879 226.561587 
L 167.765933 222.749159 
L 166.953142 218.93673 
L 166.147893 215.124302 
L 165.349933 211.311873 
L 164.558393 207.499445 
L 163.772465 203.687016 
L 162.991706 199.874588 
L 162.216102 196.06216 
L 161.446114 192.249731 
L 160.682901 188.437303 
L 159.928808 184.624874 
L 159.188067 180.812446 
L 158.467559 177.000017 
L 157.777414 173.187589 
L 157.131246 169.37516 
L 156.545868 165.562732 
L 156.040438 161.750303 
L 155.635083 157.937875 
L 155.349153 154.125446 
L 155.199347 150.313018 
L 155.197978 146.500589 
L 155.35162 142.688161 
L 155.660355 138.875732 
L 156.117691 135.063304 
L 156.711141 131.250875 
L 157.423341 127.438447 
L 158.23352 123.626018 
L 159.119107 119.81359 
L 160.057276 116.001161 
L 161.026271 112.188733 
L 162.006397 108.376304 
L 162.980667 104.563876 
L 163.935078 100.751447 
L 164.858609 96.939019 
L 165.742987 93.12659 
L 166.582324 89.314162 
L 167.372709 85.501733 
L 168.111803 81.689305 
L 168.798508 77.876876 
L 169.432717 74.064448 
L 170.015155 70.252019 
L 170.547305 66.439591 
L 171.031374 62.627162 
L 171.470273 58.814734 
L 171.867562 55.002305 
L 172.227326 51.189877 
L 172.553972 47.377448 
L 172.851951 43.56502 
L 173.125454 39.752591 
L 173.378111 35.940163 
L 173.612769 32.127734 
L 173.831387 28.315306 
L 174.035064 24.502877 
L 174.224189 20.690449 
L 174.398684 16.87802 
L 174.55828 13.065592 
L 174.702766 9.253163 
L 174.832186 5.440735 
L 174.946935 1.628306 
L 175.047777 -2.184122 
L 175.135801 -5.996551 
L 175.212323 -9.808979 
L 175.278789 -13.621408 
L 175.336674 -17.433836 
L 175.3874 -21.246264 
L 175.432273 -25.058693 
L 175.472429 -28.871121 
L 175.508799 -32.68355 
L 175.542087 -36.495978 
L 175.572768 -40.308407 
L 175.601104 -44.120835 
L 175.627184 -47.933264 
L 175.650974 -51.745692 
L 175.672382 -55.558121 
L 175.691316 -59.370549 
L 175.707726 -63.182978 
L 175.721637 -66.995406 
L 175.733156 -70.807835 
L 175.742467 -74.620263 
L 175.749809 -78.432692 
L 175.755458 -82.24512 
L 175.759696 -86.057549 
L 175.762797 -89.869977 
L 175.765009 -93.682406 
L 175.766547 -97.494834 
L 175.767589 -101.307263 
L 175.768276 -105.119691 
L 175.770474 -105.119691 
L 175.770474 -105.119691 
L 175.771161 -101.307263 
L 175.772203 -97.494834 
L 175.773741 -93.682406 
L 175.775953 -89.869977 
L 175.779054 -86.057549 
L 175.783292 -82.24512 
L 175.788941 -78.432692 
L 175.796283 -74.620263 
L 175.805594 -70.807835 
L 175.817113 -66.995406 
L 175.831024 -63.182978 
L 175.847434 -59.370549 
L 175.866368 -55.558121 
L 175.887776 -51.745692 
L 175.911566 -47.933264 
L 175.937646 -44.120835 
L 175.965982 -40.308407 
L 175.996663 -36.495978 
L 176.029951 -32.68355 
L 176.066321 -28.871121 
L 176.106477 -25.058693 
L 176.15135 -21.246264 
L 176.202076 -17.433836 
L 176.259961 -13.621408 
L 176.326427 -9.808979 
L 176.402949 -5.996551 
L 176.490973 -2.184122 
L 176.591815 1.628306 
L 176.706564 5.440735 
L 176.835984 9.253163 
L 176.98047 13.065592 
L 177.140066 16.87802 
L 177.314561 20.690449 
L 177.503686 24.502877 
L 177.707363 28.315306 
L 177.925981 32.127734 
L 178.160639 35.940163 
L 178.413296 39.752591 
L 178.686799 43.56502 
L 178.984778 47.377448 
L 179.311424 51.189877 
L 179.671188 55.002305 
L 180.068477 58.814734 
L 180.507376 62.627162 
L 180.991445 66.439591 
L 181.523595 70.252019 
L 182.106033 74.064448 
L 182.740242 77.876876 
L 183.426947 81.689305 
L 184.166041 85.501733 
L 184.956426 89.314162 
L 185.795763 93.12659 
L 186.680141 96.939019 
L 187.603672 100.751447 
L 188.558083 104.563876 
L 189.532353 108.376304 
L 190.512479 112.188733 
L 191.481474 116.001161 
L 192.419643 119.81359 
L 193.30523 123.626018 
L 194.115409 127.438447 
L 194.827609 131.250875 
L 195.421059 135.063304 
L 195.878395 138.875732 
L 196.18713 142.688161 
L 196.340772 146.500589 
L 196.339403 150.313018 
L 196.189597 154.125446 
L 195.903667 157.937875 
L 195.498312 161.750303 
L 194.992882 165.562732 
L 194.407504 169.37516 
L 193.761336 173.187589 
L 193.071191 177.000017 
L 192.350683 180.812446 
L 191.609942 184.624874 
L 190.855849 188.437303 
L 190.092636 192.249731 
L 189.322648 196.06216 
L 188.547044 199.874588 
L 187.766285 203.687016 
L 186.980357 207.499445 
L 186.188817 211.311873 
L 185.390857 215.124302 
L 184.585608 218.93673 
L 183.772817 222.749159 
L 182.953871 226.561587 
L 182.132915 230.374016 
L 181.317694 234.186444 
L 180.519728 237.998873 
L 179.753594 241.811301 
L 179.035345 245.62373 
L 178.380382 249.436158 
L 177.801258 253.248587 
L 177.305944 257.061015 
L 176.896922 260.873444 
L 176.57125 264.685872 
L 176.321467 268.498301 
L 176.137051 272.310729 
z
" clip-path="url(#p763f11fb9a)" style="fill: #95a3c3; stroke: #595959; stroke-width: 0.5"/>
   </g>
   <g id="PolyCollection_4">
    <path d="M 231.933795 272.316588 
L 231.204955 272.316588 
L 231.019301 268.459641 
L 230.766786 264.602695 
L 230.436402 260.745749 
L 230.020286 256.888803 
L 229.515249 253.031856 
L 228.923737 249.17491 
L 228.253895 245.317964 
L 227.518618 241.461017 
L 226.733739 237.604071 
L 225.915752 233.747125 
L 225.079625 229.890179 
L 224.23719 226.033232 
L 223.396448 222.176286 
L 222.561767 218.31934 
L 221.73475 214.462394 
L 220.915374 210.605447 
L 220.103015 206.748501 
L 219.297163 202.891555 
L 218.497781 199.034609 
L 217.705481 195.177662 
L 216.921679 191.320716 
L 216.148889 187.46377 
L 215.391198 183.606824 
L 214.65482 179.749877 
L 213.948588 175.892931 
L 213.284215 172.035985 
L 212.676179 168.179039 
L 212.141184 164.322092 
L 211.697193 160.465146 
L 211.362123 156.6082 
L 211.152338 152.751254 
L 211.08112 148.894307 
L 211.157315 145.037361 
L 211.38435 141.180415 
L 211.759746 137.323469 
L 212.27521 133.466522 
L 212.917269 129.609576 
L 213.668351 125.75263 
L 214.50814 121.895684 
L 215.415022 118.038737 
L 216.367429 114.181791 
L 217.344952 110.324845 
L 218.329146 106.467899 
L 219.303999 102.610952 
L 220.256104 98.754006 
L 221.174619 94.89706 
L 222.051077 91.040114 
L 222.879155 87.183167 
L 223.654438 83.326221 
L 224.374233 79.469275 
L 225.037409 75.612329 
L 225.644272 71.755382 
L 226.196428 67.898436 
L 226.696618 64.04149 
L 227.148503 60.184544 
L 227.556413 56.327597 
L 227.925061 52.470651 
L 228.259252 48.613705 
L 228.56361 44.756759 
L 228.84235 40.899812 
L 229.099098 37.042866 
L 229.336786 33.18592 
L 229.557612 29.328974 
L 229.763073 25.472027 
L 229.95405 21.615081 
L 230.13095 17.758135 
L 230.29387 13.901189 
L 230.442783 10.044242 
L 230.577699 6.187296 
L 230.698806 2.33035 
L 230.806559 -1.526596 
L 230.901709 -5.383543 
L 230.98528 -9.240489 
L 231.058504 -13.097435 
L 231.122721 -16.954381 
L 231.179274 -20.811328 
L 231.229406 -24.668274 
L 231.274188 -28.52522 
L 231.314473 -32.382166 
L 231.350884 -36.239113 
L 231.383834 -40.096059 
L 231.413566 -43.953005 
L 231.440205 -47.809951 
L 231.463816 -51.666898 
L 231.484451 -55.523844 
L 231.502186 -59.38079 
L 231.517149 -63.237736 
L 231.529522 -67.094683 
L 231.539539 -70.951629 
L 231.547474 -74.808575 
L 231.55362 -78.665521 
L 231.558274 -82.522468 
L 231.561718 -86.379414 
L 231.564207 -90.23636 
L 231.565965 -94.093306 
L 231.567176 -97.950253 
L 231.567991 -101.807199 
L 231.568525 -105.664145 
L 231.568866 -109.521091 
L 231.569884 -109.521091 
L 231.569884 -109.521091 
L 231.570225 -105.664145 
L 231.570759 -101.807199 
L 231.571574 -97.950253 
L 231.572785 -94.093306 
L 231.574543 -90.23636 
L 231.577032 -86.379414 
L 231.580476 -82.522468 
L 231.58513 -78.665521 
L 231.591276 -74.808575 
L 231.599211 -70.951629 
L 231.609228 -67.094683 
L 231.621601 -63.237736 
L 231.636564 -59.38079 
L 231.654299 -55.523844 
L 231.674934 -51.666898 
L 231.698545 -47.809951 
L 231.725184 -43.953005 
L 231.754916 -40.096059 
L 231.787866 -36.239113 
L 231.824277 -32.382166 
L 231.864562 -28.52522 
L 231.909344 -24.668274 
L 231.959476 -20.811328 
L 232.016029 -16.954381 
L 232.080246 -13.097435 
L 232.15347 -9.240489 
L 232.237041 -5.383543 
L 232.332191 -1.526596 
L 232.439944 2.33035 
L 232.561051 6.187296 
L 232.695967 10.044242 
L 232.84488 13.901189 
L 233.0078 17.758135 
L 233.1847 21.615081 
L 233.375677 25.472027 
L 233.581138 29.328974 
L 233.801964 33.18592 
L 234.039652 37.042866 
L 234.2964 40.899812 
L 234.57514 44.756759 
L 234.879498 48.613705 
L 235.213689 52.470651 
L 235.582337 56.327597 
L 235.990247 60.184544 
L 236.442132 64.04149 
L 236.942322 67.898436 
L 237.494478 71.755382 
L 238.101341 75.612329 
L 238.764517 79.469275 
L 239.484312 83.326221 
L 240.259595 87.183167 
L 241.087673 91.040114 
L 241.964131 94.89706 
L 242.882646 98.754006 
L 243.834751 102.610952 
L 244.809604 106.467899 
L 245.793798 110.324845 
L 246.771321 114.181791 
L 247.723728 118.038737 
L 248.63061 121.895684 
L 249.470399 125.75263 
L 250.221481 129.609576 
L 250.86354 133.466522 
L 251.379004 137.323469 
L 251.7544 141.180415 
L 251.981435 145.037361 
L 252.05763 148.894307 
L 251.986412 152.751254 
L 251.776627 156.6082 
L 251.441557 160.465146 
L 250.997566 164.322092 
L 250.462571 168.179039 
L 249.854535 172.035985 
L 249.190162 175.892931 
L 248.48393 179.749877 
L 247.747552 183.606824 
L 246.989861 187.46377 
L 246.217071 191.320716 
L 245.433269 195.177662 
L 244.640969 199.034609 
L 243.841587 202.891555 
L 243.035735 206.748501 
L 242.223376 210.605447 
L 241.404 214.462394 
L 240.576983 218.31934 
L 239.742302 222.176286 
L 238.90156 226.033232 
L 238.059125 229.890179 
L 237.222998 233.747125 
L 236.405011 237.604071 
L 235.620132 241.461017 
L 234.884855 245.317964 
L 234.215013 249.17491 
L 233.623501 253.031856 
L 233.118464 256.888803 
L 232.702348 260.745749 
L 232.371964 264.602695 
L 232.119449 268.459641 
L 231.933795 272.316588 
z
" clip-path="url(#p763f11fb9a)" style="fill: #db96c0; stroke: #595959; stroke-width: 0.5"/>
   </g>
   <g id="PolyCollection_5">
    <path d="M 287.738865 272.241603 
L 286.999885 272.241603 
L 286.81131 268.37971 
L 286.554806 264.517818 
L 286.219273 260.655925 
L 285.796879 256.794033 
L 285.284619 252.932141 
L 284.68528 249.070248 
L 284.007476 245.208356 
L 283.26463 241.346463 
L 282.473083 237.484571 
L 281.649729 233.622678 
L 280.809771 229.760786 
L 279.965093 225.898893 
L 279.123578 222.037001 
L 278.289366 218.175109 
L 277.46378 214.313216 
L 276.646518 210.451324 
L 275.836719 206.589431 
L 275.033677 202.727539 
L 274.237212 198.865646 
L 273.447818 195.003754 
L 272.666823 191.141862 
L 271.896691 187.279969 
L 271.141506 183.418077 
L 270.407547 179.556184 
L 269.703792 175.694292 
L 269.042165 171.832399 
L 268.437406 167.970507 
L 267.906479 164.108614 
L 267.467556 160.246722 
L 267.13866 156.38483 
L 266.936119 152.522937 
L 266.873038 148.661045 
L 266.957967 144.799152 
L 267.193979 140.93726 
L 267.578252 137.075367 
L 268.102228 133.213475 
L 268.752297 129.351583 
L 269.510887 125.48969 
L 270.357789 121.627798 
L 271.271536 117.765905 
L 272.230674 113.904013 
L 273.214798 110.04212 
L 274.205313 106.180228 
L 275.185903 102.318335 
L 276.142761 98.456443 
L 277.064618 94.594551 
L 277.94267 90.732658 
L 278.770423 86.870766 
L 279.543519 83.008873 
L 280.259543 79.146981 
L 280.917828 75.285088 
L 281.519241 71.423196 
L 282.065953 67.561304 
L 282.561192 63.699411 
L 283.008967 59.837519 
L 283.413789 55.975626 
L 283.780394 52.113734 
L 284.113476 48.251841 
L 284.417453 44.389949 
L 284.696277 40.528056 
L 284.953288 36.666164 
L 285.19114 32.804272 
L 285.411786 28.942379 
L 285.616523 25.080487 
L 285.806105 21.218594 
L 285.980882 17.356702 
L 286.140977 13.494809 
L 286.286454 9.632917 
L 286.417474 5.771025 
L 286.534402 1.909132 
L 286.637878 -1.95276 
L 286.728822 -5.814653 
L 286.808397 -9.676545 
L 286.877934 -13.538438 
L 286.938835 -17.40033 
L 286.992465 -21.262223 
L 287.040069 -25.124115 
L 287.082695 -28.986007 
L 287.121166 -32.8479 
L 287.156065 -36.709792 
L 287.187769 -40.571685 
L 287.216482 -44.433577 
L 287.242299 -48.29547 
L 287.265255 -52.157362 
L 287.285379 -56.019254 
L 287.302729 -59.881147 
L 287.317413 -63.743039 
L 287.329597 -67.604932 
L 287.339497 -71.466824 
L 287.347371 -75.328717 
L 287.353496 -79.190609 
L 287.358155 -83.052502 
L 287.361618 -86.914394 
L 287.364131 -90.776286 
L 287.365912 -94.638179 
L 287.367143 -98.500071 
L 287.367972 -102.361964 
L 287.368516 -106.223856 
L 287.368863 -110.085749 
L 287.369887 -110.085749 
L 287.369887 -110.085749 
L 287.370234 -106.223856 
L 287.370778 -102.361964 
L 287.371607 -98.500071 
L 287.372838 -94.638179 
L 287.374619 -90.776286 
L 287.377132 -86.914394 
L 287.380595 -83.052502 
L 287.385254 -79.190609 
L 287.391379 -75.328717 
L 287.399253 -71.466824 
L 287.409153 -67.604932 
L 287.421337 -63.743039 
L 287.436021 -59.881147 
L 287.453371 -56.019254 
L 287.473495 -52.157362 
L 287.496451 -48.29547 
L 287.522268 -44.433577 
L 287.550981 -40.571685 
L 287.582685 -36.709792 
L 287.617584 -32.8479 
L 287.656055 -28.986007 
L 287.698681 -25.124115 
L 287.746285 -21.262223 
L 287.799915 -17.40033 
L 287.860816 -13.538438 
L 287.930353 -9.676545 
L 288.009928 -5.814653 
L 288.100872 -1.95276 
L 288.204348 1.909132 
L 288.321276 5.771025 
L 288.452296 9.632917 
L 288.597773 13.494809 
L 288.757868 17.356702 
L 288.932645 21.218594 
L 289.122227 25.080487 
L 289.326964 28.942379 
L 289.54761 32.804272 
L 289.785462 36.666164 
L 290.042473 40.528056 
L 290.321297 44.389949 
L 290.625274 48.251841 
L 290.958356 52.113734 
L 291.324961 55.975626 
L 291.729783 59.837519 
L 292.177558 63.699411 
L 292.672797 67.561304 
L 293.219509 71.423196 
L 293.820922 75.285088 
L 294.479207 79.146981 
L 295.195231 83.008873 
L 295.968327 86.870766 
L 296.79608 90.732658 
L 297.674132 94.594551 
L 298.595989 98.456443 
L 299.552847 102.318335 
L 300.533437 106.180228 
L 301.523952 110.04212 
L 302.508076 113.904013 
L 303.467214 117.765905 
L 304.380961 121.627798 
L 305.227863 125.48969 
L 305.986453 129.351583 
L 306.636522 133.213475 
L 307.160498 137.075367 
L 307.544771 140.93726 
L 307.780783 144.799152 
L 307.865712 148.661045 
L 307.802631 152.522937 
L 307.60009 156.38483 
L 307.271194 160.246722 
L 306.832271 164.108614 
L 306.301344 167.970507 
L 305.696585 171.832399 
L 305.034958 175.694292 
L 304.331203 179.556184 
L 303.597244 183.418077 
L 302.842059 187.279969 
L 302.071927 191.141862 
L 301.290932 195.003754 
L 300.501538 198.865646 
L 299.705073 202.727539 
L 298.902031 206.589431 
L 298.092232 210.451324 
L 297.27497 214.313216 
L 296.449384 218.175109 
L 295.615172 222.037001 
L 294.773657 225.898893 
L 293.928979 229.760786 
L 293.089021 233.622678 
L 292.265667 237.484571 
L 291.47412 241.346463 
L 290.731274 245.208356 
L 290.05347 249.070248 
L 289.454131 252.932141 
L 288.941871 256.794033 
L 288.519477 260.655925 
L 288.183944 264.517818 
L 287.92744 268.37971 
L 287.738865 272.241603 
z
" clip-path="url(#p763f11fb9a)" style="fill: #a2c865; stroke: #595959; stroke-width: 0.5"/>
   </g>
   <g id="matplotlib.axis_1">
    <g id="xtick_1">
     <g id="line2d_1">
      <defs>
       <path id="m878deaa493" d="M 0 0 
L 0 3.5 
" style="stroke: #000000; stroke-width: 0.8"/>
      </defs>
      <g>
       <use xlink:href="#m878deaa493" x="64.169375" y="233.266875" style="stroke: #000000; stroke-width: 0.8"/>
      </g>
     </g>
     <g id="text_1">
      <!-- 10$^2$ -->
      <g transform="translate(54.569375 248.948125)">
       <text>
        <tspan style="font: 12px 'Helvetica'" x="0 6.673828" y="-0.171875">10</tspan>
        <tspan style="font: 8.4px 'DejaVu Sans'" x="13.4625" y="-4.765625">2</tspan>
       </text>
      </g>
     </g>
    </g>
    <g id="xtick_2">
     <g id="line2d_2">
      <g>
       <use xlink:href="#m878deaa493" x="119.969375" y="233.266875" style="stroke: #000000; stroke-width: 0.8"/>
      </g>
     </g>
     <g id="text_2">
      <!-- 10$^3$ -->
      <g transform="translate(110.369375 248.948125)">
       <text>
        <tspan style="font: 12px 'Helvetica'" x="0 6.673828" y="-0.171875">10</tspan>
        <tspan style="font: 8.4px 'DejaVu Sans'" x="13.4625" y="-4.765625">3</tspan>
       </text>
      </g>
     </g>
    </g>
    <g id="xtick_3">
     <g id="line2d_3">
      <g>
       <use xlink:href="#m878deaa493" x="175.769375" y="233.266875" style="stroke: #000000; stroke-width: 0.8"/>
      </g>
     </g>
     <g id="text_3">
      <!-- 10$^4$ -->
      <g transform="translate(166.169375 248.880625)">
       <text>
        <tspan style="font: 12px 'Helvetica'" x="0 6.673828" y="-0.28125">10</tspan>
        <tspan style="font: 8.4px 'DejaVu Sans'" x="13.4625" y="-4.875">4</tspan>
       </text>
      </g>
     </g>
    </g>
    <g id="xtick_4">
     <g id="line2d_4">
      <g>
       <use xlink:href="#m878deaa493" x="231.569375" y="233.266875" style="stroke: #000000; stroke-width: 0.8"/>
      </g>
     </g>
     <g id="text_4">
      <!-- 10$^5$ -->
      <g transform="translate(221.969375 248.880625)">
       <text>
        <tspan style="font: 12px 'Helvetica'" x="0 6.673828" y="-0.28125">10</tspan>
        <tspan style="font: 8.4px 'DejaVu Sans'" x="13.4625" y="-4.875">5</tspan>
       </text>
      </g>
     </g>
    </g>
    <g id="xtick_5">
     <g id="line2d_5">
      <g>
       <use xlink:href="#m878deaa493" x="287.369375" y="233.266875" style="stroke: #000000; stroke-width: 0.8"/>
      </g>
     </g>
     <g id="text_5">
      <!-- 10$^6$ -->
      <g transform="translate(277.769375 248.948125)">
       <text>
        <tspan style="font: 12px 'Helvetica'" x="0 6.673828" y="-0.171875">10</tspan>
        <tspan style="font: 8.4px 'DejaVu Sans'" x="13.4625" y="-4.765625">6</tspan>
       </text>
      </g>
     </g>
    </g>
    <g id="text_6">
     <text style="font: 12px 'Helvetica', sans-serif; text-anchor: middle" x="175.769375" y="264.275" transform="rotate(-0 175.769375 264.275)">Spectral library size</text>
    </g>
   </g>
   <g id="matplotlib.axis_2">
    <g id="ytick_1">
     <g id="line2d_6">
      <defs>
       <path id="m5a12c9fbba" d="M 0 0 
L -3.5 0 
" style="stroke: #000000; stroke-width: 0.8"/>
      </defs>
      <g>
       <use xlink:href="#m5a12c9fbba" x="36.269375" y="233.266875" style="stroke: #000000; stroke-width: 0.8"/>
      </g>
     </g>
     <g id="text_7">
      <text style="font: 12px 'Helvetica', sans-serif; text-anchor: end" x="29.269375" y="237.57375" transform="rotate(-0 29.269375 237.57375)">0</text>
     </g>
    </g>
    <g id="ytick_2">
     <g id="line2d_7">
      <g>
       <use xlink:href="#m5a12c9fbba" x="36.269375" y="188.914875" style="stroke: #000000; stroke-width: 0.8"/>
      </g>
     </g>
     <g id="text_8">
      <text style="font: 12px 'Helvetica', sans-serif; text-anchor: end" x="29.269375" y="193.22175" transform="rotate(-0 29.269375 193.22175)">1</text>
     </g>
    </g>
    <g id="ytick_3">
     <g id="line2d_8">
      <g>
       <use xlink:href="#m5a12c9fbba" x="36.269375" y="144.562875" style="stroke: #000000; stroke-width: 0.8"/>
      </g>
     </g>
     <g id="text_9">
      <text style="font: 12px 'Helvetica', sans-serif; text-anchor: end" x="29.269375" y="148.86975" transform="rotate(-0 29.269375 148.86975)">2</text>
     </g>
    </g>
    <g id="ytick_4">
     <g id="line2d_9">
      <g>
       <use xlink:href="#m5a12c9fbba" x="36.269375" y="100.210875" style="stroke: #000000; stroke-width: 0.8"/>
      </g>
     </g>
     <g id="text_10">
      <text style="font: 12px 'Helvetica', sans-serif; text-anchor: end" x="29.269375" y="104.51775" transform="rotate(-0 29.269375 104.51775)">3</text>
     </g>
    </g>
    <g id="ytick_5">
     <g id="line2d_10">
      <g>
       <use xlink:href="#m5a12c9fbba" x="36.269375" y="55.858875" style="stroke: #000000; stroke-width: 0.8"/>
      </g>
     </g>
     <g id="text_11">
      <text style="font: 12px 'Helvetica', sans-serif; text-anchor: end" x="29.269375" y="60.16575" transform="rotate(-0 29.269375 60.16575)">4</text>
     </g>
    </g>
    <g id="ytick_6">
     <g id="line2d_11">
      <g>
       <use xlink:href="#m5a12c9fbba" x="36.269375" y="11.506875" style="stroke: #000000; stroke-width: 0.8"/>
      </g>
     </g>
     <g id="text_12">
      <text style="font: 12px 'Helvetica', sans-serif; text-anchor: end" x="29.269375" y="15.81375" transform="rotate(-0 29.269375 15.81375)">5</text>
     </g>
    </g>
    <g id="text_13">
     <text style="font: 12px 'Helvetica', sans-serif; text-anchor: middle" x="16.048125" y="122.386875" transform="rotate(-90 16.048125 122.386875)">Spectral entropy distribution</text>
    </g>
   </g>
   <g id="line2d_12">
    <path d="M 48.243838 184.614147 
L 80.094912 184.614147 
" clip-path="url(#p763f11fb9a)" style="fill: none; stroke-dasharray: 0.375,0.375; stroke-dashoffset: 0; stroke: #595959; stroke-width: 0.5"/>
   </g>
   <g id="line2d_13">
    <path d="M 42.255972 153.41207 
L 86.082778 153.41207 
" clip-path="url(#p763f11fb9a)" style="fill: none; stroke-dasharray: 0.75,0.75; stroke-dashoffset: 0; stroke: #595959; stroke-width: 0.5"/>
   </g>
   <g id="line2d_14">
    <path d="M 46.191924 126.1124 
L 82.146826 126.1124 
" clip-path="url(#p763f11fb9a)" style="fill: none; stroke-dasharray: 0.375,0.375; stroke-dashoffset: 0; stroke: #595959; stroke-width: 0.5"/>
   </g>
   <g id="line2d_15">
    <path d="M 103.480211 180.674463 
L 136.458539 180.674463 
" clip-path="url(#p763f11fb9a)" style="fill: none; stroke-dasharray: 0.375,0.375; stroke-dashoffset: 0; stroke: #595959; stroke-width: 0.5"/>
   </g>
   <g id="line2d_16">
    <path d="M 99.691685 148.616612 
L 140.247065 148.616612 
" clip-path="url(#p763f11fb9a)" style="fill: none; stroke-dasharray: 0.75,0.75; stroke-dashoffset: 0; stroke: #595959; stroke-width: 0.5"/>
   </g>
   <g id="line2d_17">
    <path d="M 103.609333 117.028624 
L 136.329417 117.028624 
" clip-path="url(#p763f11fb9a)" style="fill: none; stroke-dasharray: 0.375,0.375; stroke-dashoffset: 0; stroke: #595959; stroke-width: 0.5"/>
   </g>
   <g id="line2d_18">
    <path d="M 159.35388 181.146857 
L 192.18487 181.146857 
" clip-path="url(#p763f11fb9a)" style="fill: none; stroke-dasharray: 0.375,0.375; stroke-dashoffset: 0; stroke: #595959; stroke-width: 0.5"/>
   </g>
   <g id="line2d_19">
    <path d="M 155.405048 148.505021 
L 196.133702 148.505021 
" clip-path="url(#p763f11fb9a)" style="fill: none; stroke-dasharray: 0.75,0.75; stroke-dashoffset: 0; stroke: #595959; stroke-width: 0.5"/>
   </g>
   <g id="line2d_20">
    <path d="M 160.214397 117.863317 
L 191.324353 117.863317 
" clip-path="url(#p763f11fb9a)" style="fill: none; stroke-dasharray: 0.375,0.375; stroke-dashoffset: 0; stroke: #595959; stroke-width: 0.5"/>
   </g>
   <g id="line2d_21">
    <path d="M 214.823966 181.577255 
L 248.314784 181.577255 
" clip-path="url(#p763f11fb9a)" style="fill: none; stroke-dasharray: 0.375,0.375; stroke-dashoffset: 0; stroke: #595959; stroke-width: 0.5"/>
   </g>
   <g id="line2d_22">
    <path d="M 211.286003 148.794057 
L 251.852747 148.794057 
" clip-path="url(#p763f11fb9a)" style="fill: none; stroke-dasharray: 0.75,0.75; stroke-dashoffset: 0; stroke: #595959; stroke-width: 0.5"/>
   </g>
   <g id="line2d_23">
    <path d="M 215.576566 117.821845 
L 247.562184 117.821845 
" clip-path="url(#p763f11fb9a)" style="fill: none; stroke-dasharray: 0.375,0.375; stroke-dashoffset: 0; stroke: #595959; stroke-width: 0.5"/>
   </g>
   <g id="line2d_24">
    <path d="M 271.303785 181.707452 
L 303.434965 181.707452 
" clip-path="url(#p763f11fb9a)" style="fill: none; stroke-dasharray: 0.375,0.375; stroke-dashoffset: 0; stroke: #595959; stroke-width: 0.5"/>
   </g>
   <g id="line2d_25">
    <path d="M 267.078001 148.923474 
L 307.660749 148.923474 
" clip-path="url(#p763f11fb9a)" style="fill: none; stroke-dasharray: 0.75,0.75; stroke-dashoffset: 0; stroke: #595959; stroke-width: 0.5"/>
   </g>
   <g id="line2d_26">
    <path d="M 271.432515 117.959235 
L 303.306235 117.959235 
" clip-path="url(#p763f11fb9a)" style="fill: none; stroke-dasharray: 0.375,0.375; stroke-dashoffset: 0; stroke: #595959; stroke-width: 0.5"/>
   </g>
   <g id="patch_3">
    <path d="M 36.269375 233.266875 
L 36.269375 11.506875 
" style="fill: none; stroke: #000000; stroke-width: 0.8; stroke-linejoin: miter; stroke-linecap: square"/>
   </g>
   <g id="patch_4">
    <path d="M 315.269375 233.266875 
L 315.269375 11.506875 
" style="fill: none; stroke: #000000; stroke-width: 0.8; stroke-linejoin: miter; stroke-linecap: square"/>
   </g>
   <g id="patch_5">
    <path d="M 36.269375 233.266875 
L 315.269375 233.266875 
" style="fill: none; stroke: #000000; stroke-width: 0.8; stroke-linejoin: miter; stroke-linecap: square"/>
   </g>
   <g id="patch_6">
    <path d="M 36.269375 11.506875 
L 315.269375 11.506875 
" style="fill: none; stroke: #000000; stroke-width: 0.8; stroke-linejoin: miter; stroke-linecap: square"/>
   </g>
  </g>
 </g>
 <defs>
  <clipPath id="p763f11fb9a">
   <rect x="36.269375" y="11.506875" width="279" height="221.76"/>
  </clipPath>
 </defs>
</svg>
